<?xml version="1.0" standalone="no"?>
<!DOCTYPE svg PUBLIC "-//W3C//DTD SVG 1.1//EN" "http://www.w3.org/Graphics/SVG/1.1/DTD/svg11.dtd" >
<svg xmlns="http://www.w3.org/2000/svg">
<metadata>
Created by FontForge 20120731 at Tue Mar 21 13:03:13 2017
 By admin
</metadata>
<defs>
<font id="iconfont" horiz-adv-x="1024" >
  <font-face 
    font-family="iconfont"
    font-weight="500"
    font-stretch="normal"
    units-per-em="1024"
    panose-1="2 0 6 3 0 0 0 0 0 0"
    ascent="896"
    descent="-128"
    x-height="792"
    bbox="0 -216.531 1142 897"
    underline-thickness="0"
    underline-position="0"
    unicode-range="U+0078-E8D1"
  />
<missing-glyph 
 />
    <glyph glyph-name=".notdef" 
 />
    <glyph glyph-name=".notdef" 
 />
    <glyph glyph-name=".null" horiz-adv-x="0" 
 />
    <glyph glyph-name="nonmarkingreturn" horiz-adv-x="341" 
 />
    <glyph glyph-name="x" unicode="x" horiz-adv-x="1001" 
d="M281 543q-27 -1 -53 -1h-83q-18 0 -36.5 -6t-32.5 -18.5t-23 -32t-9 -45.5v-76h912v41q0 16 -0.5 30t-0.5 18q0 13 -5 29t-17 29.5t-31.5 22.5t-49.5 9h-133v-97h-438v97zM955 310v-52q0 -23 0.5 -52t0.5 -58t-10.5 -47.5t-26 -30t-33 -16t-31.5 -4.5q-14 -1 -29.5 -0.5
t-29.5 0.5h-32l-45 128h-439l-44 -128h-29h-34q-20 0 -45 1q-25 0 -41 9.5t-25.5 23t-13.5 29.5t-4 30v167h911zM163 247q-12 0 -21 -8.5t-9 -21.5t9 -21.5t21 -8.5q13 0 22 8.5t9 21.5t-9 21.5t-22 8.5zM316 123q-8 -26 -14 -48q-5 -19 -10.5 -37t-7.5 -25t-3 -15t1 -14.5
t9.5 -10.5t21.5 -4h37h67h81h80h64h36q23 0 34 12t2 38q-5 13 -9.5 30.5t-9.5 34.5q-5 19 -11 39h-368zM336 498v228q0 11 2.5 23t10 21.5t20.5 15.5t34 6h188q31 0 51.5 -14.5t20.5 -52.5v-227h-327z" />
    <glyph glyph-name="left-arrow" unicode="&#xe605;" 
d="M649 758l-48 48l-444 -444l444 -444l48 48l-396 396z" />
    <glyph glyph-name="error-line" unicode="&#xe614;" horiz-adv-x="1025" 
d="M220 549h219v-55h-219v55zM585 549h220v-55h-220v55zM512.5 238q-47.5 0 -87 -25t-60.5 -67h-59q23 65 79.5 106t127 41t127 -41t79.5 -106h-60q-20 42 -59.5 67t-87 25zM512 -128q-161 0 -293 93l34 43q117 -81 259 -81q93 0 178 36t146 97.5t97 146t36 177.5t-36 177.5
t-97 146t-146 97.5t-178 36t-177.5 -36t-145.5 -97.5t-97.5 -146t-36.5 -177.5q0 -143 82 -261l-38 -40q-99 135 -99 301q0 104 40.5 199t109 163.5t163.5 109t199 40.5t199 -40.5t163.5 -109t109 -163.5t40.5 -199t-40.5 -199t-109 -163.5t-163.5 -109t-199 -40.5z" />
    <glyph glyph-name="user" unicode="&#xe606;" 
d="M512.5 862q-111.5 0 -190.5 -79t-79 -191q0 -79 42.5 -144.5t112.5 -98.5q-129 -38 -211 -146t-82 -245q0 -9 6 -15t15 -6t15 6t6 15q0 99 49 183t133 133t183 49q112 0 191 79t79 190.5t-79 190.5t-190.5 79zM512 365q-94 0 -160.5 67t-66.5 160.5t66.5 160t160.5 66.5
t160.5 -66.5t66.5 -160t-66.5 -160.5t-160.5 -67zM760 282q-8 5 -16.5 4t-14 -8t-4 -16t8.5 -14q68 -52 105.5 -128t37.5 -162q0 -9 6.5 -15t15 -6t15 6t6.5 15q0 96 -42 181t-118 143z" />
    <glyph glyph-name="right" unicode="&#xe62e;" 
d="M939.5 691q-8.5 9 -21 9t-21.5 -9l-521 -549l-249 249q-9 9 -21.5 9t-21.5 -9t-9 -21.5t9 -20.5l271 -272q9 -8 20.5 -8.5t20.5 6.5l3 3l541 571q8 9 8 21t-8.5 21z" />
    <glyph glyph-name="set-line" unicode="&#xe636;" 
d="M513 231q-63 0 -107.5 45.5t-44.5 109.5t44.5 109.5t107.5 45.5t107.5 -45.5t44.5 -109.5q0 -12 -3 -28q-2 -9 -9.5 -14t-16 -3.5t-13.5 9t-4 16.5q2 12 2 20q0 46 -31.5 78.5t-76.5 32.5t-76.5 -32.5t-31.5 -78.5t31.5 -78.5t76.5 -32.5q8 0 19 2q9 2 16.5 -3.5t9 -14.5
t-3.5 -16.5t-14 -8.5q-15 -3 -27 -3zM370 -56q-3 0 -7 2q-82 29 -148 87q-10 10 -6 24q22 74 -15.5 140.5t-111.5 83.5q-14 3 -16 18q-9 44 -9 87t9 88q2 14 16 17q74 17 111.5 84t15.5 141q-4 14 6 23q66 58 148 88q14 4 23 -6q52 -57 127 -57t126 57q10 10 23 6
q83 -30 148 -88q11 -9 7 -23q-22 -74 15.5 -141t111.5 -84q14 -3 16 -17q8 -45 8 -88t-8 -87q-2 -15 -16 -18q-74 -17 -111.5 -83.5t-15.5 -140.5q4 -14 -7 -24q-65 -58 -148 -87q-13 -5 -23 6q-51 56 -126 56t-127 -56q-6 -8 -16 -8zM254 58q50 -42 111 -66q63 61 148 61
q86 0 148 -61q60 24 111 66q-20 86 23 161.5t125 101.5q5 33 5 65t-5 66q-82 25 -125 101t-23 161q-51 42 -111 66q-62 -60 -148 -60q-85 0 -148 60q-61 -24 -111 -66q19 -85 -23.5 -161t-124.5 -101q-5 -34 -5 -66t5 -65q82 -26 125 -102t23 -161z" />
    <glyph glyph-name="jingxuanbingli" unicode="&#xe64b;" 
d="M758 -83l-246 181l-246 -181l94 293l-246 182h304l94 293l94 -293h304l-246 -182zM198 364l194 -143l-74 -232l194 143l194 -143l-74 232l194 143h-240l-74 232l-74 -232h-240z" />
    <glyph glyph-name="plus" unicode="&#xe628;" 
d="M544 768h-64v-352h-352v-64h352v-352h64v352h352v64h-352v352z" />
    <glyph glyph-name="gengduo" unicode="&#xe626;" horiz-adv-x="1028" 
d="M307 288q0 14 9.5 24t23.5 10t23.5 -10t9.5 -24q0 -15 -9.5 -24t-23.5 -9q-16 0 -24.5 9.5t-8.5 23.5zM482 288q0 14 9.5 24t23.5 10t23.5 -10t9.5 -24q0 -15 -9.5 -24t-23.5 -9q-15 0 -24 9.5t-9 23.5zM657 288q0 14 9.5 24t23.5 10t23.5 -10t9.5 -24q0 -15 -9.5 -24
t-23.5 -9q-15 0 -24 9.5t-9 23.5zM514 -166q-95 0 -181 37t-148.5 99.5t-99.5 148.5t-37 181t37 181t99.5 148.5t148.5 99.5t181 37t181 -37t148.5 -99.5t99.5 -148.5t37 -181t-37 -181t-99.5 -148.5t-148.5 -99.5t-181 -37zM514 720q-114 0 -210.5 -56.5t-153 -153
t-56.5 -210.5t56.5 -210.5t153 -153t210.5 -56.5t210.5 56.5t153 153t56.5 210.5t-56.5 210.5t-153 153t-210.5 56.5z" />
    <glyph glyph-name="find-line" unicode="&#xe643;" 
d="M1004 412q-6 8 -15.5 20t-37 41.5t-57 56.5t-73.5 58.5t-88 54.5t-99.5 39t-109 16t-108.5 -16t-99.5 -39t-88 -55t-73 -58.5t-57 -56t-37.5 -41.5t-16 -20l-6 -9l6 -9q6 -8 16 -20t37.5 -41.5t57 -56t73 -58.5t88 -55t99.5 -39t108.5 -16t109 16t99.5 39t88 55
t73.5 58.5t57 56t37 41.5t15.5 20l7 9zM525 138q-63 0 -129 23.5t-114 55t-96 73.5t-70.5 66.5t-39.5 46.5q17 22 39.5 46.5t70 66.5t96 73.5t114.5 55t129 23.5t128.5 -23.5t114 -55t96 -73.5t70 -66.5t40.5 -46.5q-18 -22 -40.5 -46.5t-70 -66.5t-95.5 -73.5t-114 -55
t-129 -23.5zM525 623q-91 0 -155.5 -64.5t-64.5 -155.5t64.5 -155.5t155.5 -64.5t155.5 64.5t64.5 155.5t-64.5 155.5t-155.5 64.5zM525 213q-79 0 -135 55.5t-56 134.5t56 134.5t135 55.5t135 -55.5t56 -134.5t-56 -134.5t-135 -55.5z" />
    <glyph glyph-name="up-arrow" unicode="&#xe600;" 
d="M979 206l-412 431l1 1l-56 57l-56 -57l1 -1l-412 -431l55 -57l412 430l412 -430z" />
    <glyph glyph-name="history" unicode="&#xe61b;" 
d="M875 -128h-608q-18 0 -30.5 12.5t-12.5 30.5t12.5 30.5t30.5 12.5h608q5 0 5 4v840q0 4 -5 4h-608q-5 0 -5 -4v-756q0 -18 -12.5 -30.5t-30 -12.5t-30.5 12.5t-13 30.5v756q0 37 26.5 63.5t64.5 26.5h608q38 0 64.5 -26.5t26.5 -63.5v-840q0 -37 -26.5 -63.5t-64.5 -26.5
v0zM526 475h-186q-9 0 -15.5 6.5t-6.5 15.5t6.5 15t15.5 6h186q9 0 15 -6t6 -15t-6 -15.5t-15 -6.5v0zM526 364h-186q-9 0 -15.5 6.5t-6.5 15.5t6.5 15t15.5 6h186q9 0 15 -6t6 -15t-6 -15.5t-15 -6.5v0zM526 253h-186q-9 0 -15.5 6.5t-6.5 15.5t6.5 15t15.5 6h186
q9 0 15 -6t6 -15t-6 -15.5t-15 -6.5v0zM526 142h-186q-9 0 -15.5 6.5t-6.5 15t6.5 15t15.5 6.5h186q9 0 15 -6.5t6 -15t-6 -15t-15 -6.5v0zM526 31h-186q-9 0 -15.5 6.5t-6.5 15t6.5 15t15.5 6.5h186q9 0 15 -6.5t6 -15t-6 -15t-15 -6.5v0zM792 475h-187q-8 0 -14.5 6.5
t-6.5 15.5t6.5 15t14.5 6h187q9 0 15 -6t6 -15t-6 -15.5t-15 -6.5v0zM792 364h-187q-8 0 -14.5 6.5t-6.5 15.5t6.5 15t14.5 6h187q9 0 15 -6t6 -15t-6 -15.5t-15 -6.5v0zM792 253h-187q-8 0 -14.5 6.5t-6.5 15.5t6.5 15t14.5 6h187q9 0 15 -6t6 -15t-6 -15.5t-15 -6.5v0z
M792 142h-187q-8 0 -14.5 6.5t-6.5 15t6.5 15t14.5 6.5h187q9 0 15 -6.5t6 -15t-6 -15t-15 -6.5v0zM792 31h-187q-8 0 -14.5 6.5t-6.5 15t6.5 15t14.5 6.5h187q9 0 15 -6.5t6 -15t-6 -15t-15 -6.5v0zM511 -128h-362q-38 0 -64.5 26.5t-26.5 63.5v709q0 47 21 68
q16 15 36 18.5t63 3.5h24h1q17 0 30 -12.5t13 -30.5t-12.5 -30.5t-30.5 -12.5h-25h-34v-4v-709q0 -4 5 -4h362q17 0 30 -12.5t13 -30.5t-13 -30.5t-30 -12.5v0zM792 594h-450q-9 0 -15 6.5t-6 15.5v117q0 9 6 15t15 6h450q9 0 15 -6t6 -15v-117q0 -9 -6 -15.5t-15 -6.5v0z
M364 637h406v74h-406v-74z" />
    <glyph glyph-name="right-arrow" unicode="&#xe611;" 
d="M341 -87l-37 37l470 471l37 -37zM304 818l37 37l470 -471l-37 -37z" />
    <glyph glyph-name="send-friends" unicode="&#xe619;" 
d="M1024 -77v0q0 -20 -14 -34.5t-34 -14.5h-923q-20 0 -34 14.5t-14 34.5v0q0 7 1 19.5t7.5 47t18.5 64.5t38 63t62 51q41 21 70.5 25t77.5 25q44 19 74.5 33t39.5 19l8 5l1 97q-4 4 -10.5 11t-19.5 38t-18 72q-16 -4 -23.5 12t-8.5 38q0 3 -1.5 17t-2 24t0.5 21.5t5.5 17
t12.5 3.5q-11 80 -8 107q5 60 56.5 107.5t128.5 51.5q88 -4 133.5 -49.5t51.5 -109.5q2 -25 -9 -107q8 2 12.5 -3.5t5.5 -17t0.5 -21t-2 -24t-1.5 -16.5q-1 -22 -9 -38.5t-23 -12.5q-5 -40 -17.5 -70.5t-21.5 -39.5l-10 -10l1 -97q24 -14 122 -56q48 -21 77.5 -26t70.5 -26
q36 -18 62 -51t38 -63t19 -64t8 -47t1 -20v0z" />
    <glyph glyph-name="normal-products" unicode="&#xe61f;" 
d="M512 864q-98 0 -186.5 -38t-153 -102.5t-102.5 -153t-38 -186.5t38 -186.5t102.5 -153t153 -102.5t186.5 -38t186.5 38t153 102.5t102.5 153t38 186.5t-38 186.5t-102.5 153t-153 102.5t-186.5 38zM835.5 60.5q-63.5 -63.5 -145.5 -98.5q-85 -36 -178 -36t-178 36
q-82 35 -145.5 98.5t-98.5 145.5q-36 85 -36 178t36 178q35 82 98.5 145.5t145.5 98.5q85 36 178 36t178 -36q82 -35 145.5 -98.5t98.5 -145.5q36 -85 36 -178t-36 -178q-35 -82 -98.5 -145.5zM731 232h-190v166h165q5 0 9 3.5t4 9t-4 9.5t-9 4h-165v148h178q5 0 9 4t4 9.5
t-4 9.5t-9 4h-417q-5 0 -9 -4t-4 -9.5t4 -9.5t9 -4h213v-340h-126v251q0 6 -4 9.5t-9.5 3.5t-9.5 -3.5t-4 -9.5v-251h-74q-6 0 -10 -4t-4 -9.5t4 -9.5t10 -4h443q6 0 10 4t4 9.5t-4 9.5t-10 4z" />
    <glyph glyph-name="minus" unicode="&#xe663;" 
d="M95 420h833v-72h-833v72z" />
    <glyph glyph-name="share" unicode="&#xe64a;" 
d="M791.5 549q-70.5 15 -110.5 76t-25 132t76 110.5t132 24.5q26 -5 50 -19q7 -4 9.5 -12.5t-2 -16t-13 -10t-15.5 1.5q-18 10 -38 15q-54 11 -100 -19t-57.5 -84t18.5 -100t84 -57.5t100 19t57 83.5q3 12 3 25q1 8 7 14.5t15 6t15 -7t6 -14.5q-1 -16 -4 -32
q-15 -71 -76 -111t-131.5 -25zM196.5 209q-72.5 0 -124 51.5t-51.5 123.5t51.5 123.5t124 51.5t124 -51.5t51.5 -123.5t-51.5 -123.5t-124 -51.5zM196.5 517q-54.5 0 -93.5 -39t-39 -94t39 -94t93.5 -39t93.5 39t39 94t-39 94t-93.5 39zM827.5 -128q-72.5 0 -124 51.5
t-51.5 124t51.5 124t124 51.5t124 -51.5t51.5 -124t-51.5 -124t-124 -51.5zM827.5 180q-54.5 0 -93.5 -39t-39 -94t39 -94t93.5 -39t93.5 39t39 94t-39 94t-93.5 39zM742 649zM342 436l-18 39l366 193l19 -38zM326 295zM683 77l-367 199l20 37l366 -199z" />
    <glyph glyph-name="bankcard" unicode="&#xe61a;" 
d="M928 768h-832q-40 0 -68 -28t-28 -68v-576q0 -40 28 -68t68 -28h832q40 0 68 28t28 68v576q0 40 -28 68t-68 28zM960 96q0 -13 -9.5 -22.5t-22.5 -9.5h-832q-13 0 -22.5 9.5t-9.5 22.5v288h896v-288zM960 576h-896v96q0 13 9.5 22.5t22.5 9.5h832q13 0 22.5 -9.5
t9.5 -22.5v-96zM128 256h64v-128h-64v128zM256 256h64v-128h-64v128zM384 256h64v-128h-64v128z" />
    <glyph glyph-name="delete-line" unicode="&#xe61e;" 
d="M860.5 599q-8.5 0 -14.5 -6t-6 -15v-554q0 -17 -12 -29t-29 -12h-574q-17 0 -29.5 12t-12.5 29v554q0 9 -6 15t-14 6q-16 0 -20 -16v0l-1 1v-560q0 -34 24.5 -58t58.5 -24h574q34 0 58 24t24 58v554q0 9 -6 15t-14.5 6zM368 106v451q0 9 -6 15t-14.5 6t-14.5 -6t-6 -15
v-451q0 -9 6 -15t14.5 -6t14.5 6t6 15zM697 106v451q0 9 -6 15t-14.5 6t-14.5 -6t-6 -15v-451q0 -9 6 -15t14.5 -6t14.5 6t6 15zM923 742h-237l-76 76q-6 6 -15 6h-1h-164h-0.5h-0.5q-9 0 -15 -6l-76 -76h-237q-8 0 -14 -6t-6 -14.5t6 -14.5t14 -6h247h1q9 0 16 7l75 75h144
l75 -75q7 -7 16 -7h1h247q8 0 14 6t6 14.5t-6 14.5t-14 6zM532 106v451q0 9 -6 15t-14.5 6t-14.5 -6t-6 -15v-451q0 -9 6 -15t14.5 -6t14.5 6t6 15z" />
    <glyph glyph-name="home-line" unicode="&#xe603;" 
d="M599 -40h169q36 0 61 25.5t25 60.5v242q0 5 3 8t7 3h78q16 0 28.5 8.5t18.5 22.5q13 32 -11 56l-406 439q-25 25 -60 25t-60 -25l-406 -439q-24 -24 -11 -56q6 -14 18.5 -22.5t28.5 -8.5h78q4 0 7 -3t3 -8v-242q0 -35 25 -60.5t60 -25.5h170l5 2.5t8.5 12t6.5 25.5v217
h134v-217q1 -1 0 -10t4 -19.5t16 -10.5zM952 346q-3 -7 -10 -7h-78q-20 0 -35 -15t-15 -36v-242q0 -19 -13.5 -32.5t-32.5 -13.5h-149v237q0 8 -6 14t-14 6h-174q-8 0 -14 -6t-6 -14v-237h-150q-18 0 -31.5 13.5t-13.5 32.5v242q0 21 -15 36t-35 15h-78q-7 0 -10 7t2 12
l406 439q13 13 32 13t32 -13l406 -439q5 -5 2 -12z" />
    <glyph glyph-name="list-line" unicode="&#xe60b;" 
d="M726 -70h-428q-48 0 -77.5 6t-46.5 23q-17 18 -21 45t-4 85v32v526v32q0 40 1 58.5t6.5 39t17.5 32.5q17 17 46 23t78 6h428q49 0 78 -6t46 -23q17 -18 21 -44.5t4 -85.5v-32v-526v-32q0 -41 -1 -59t-6.5 -38.5t-17.5 -32.5q-17 -17 -46 -23t-78 -6zM298 794
q-77 0 -92 -16q-9 -9 -11 -30t-2 -69q1 -21 1 -32v-526q0 -12 -1 -32q0 -33 0.5 -47.5t3.5 -30t9 -21.5q16 -16 92 -16h428q77 0 92 16q9 9 11 30t2 68q-1 22 -1 33v526q0 11 1 33q0 32 -0.5 47t-3 30t-9.5 21q-15 16 -92 16h-428zM313 679h285v-44h-285v44zM313 514h392
v-44h-392v44zM313 330h392v-44h-392v44zM313 154h392v-44h-392v44z" />
    <glyph glyph-name="owner" unicode="&#xe617;" 
d="M512 888q-103 0 -196 -40t-160.5 -107.5t-107.5 -160.5t-40 -195.5t40 -196t107.5 -161t160.5 -107.5t196 -40t196 40t160.5 107.5t107.5 161t40 196t-40 195.5t-107.5 160.5t-160.5 107.5t-196 40zM512 -74q-93 0 -178 36.5t-146.5 97.5t-97.5 146t-36 178t36 178
t97.5 146.5t146.5 97.5t178 36t178 -36t146.5 -97.5t97.5 -146.5t36 -178t-36 -178t-97.5 -146t-146.5 -97.5t-178 -36.5zM811 10v3q0 3 -1 6q-10 82 -60 147t-124 97q43 30 68.5 77t25.5 101q0 90 -63 153t-152.5 63t-152.5 -63t-63 -153q0 -54 25 -101t69 -77
q-74 -31 -123.5 -95.5t-60.5 -144.5q-1 -5 -1 -10v-3v0v0v0q0 -13 9 -22t21.5 -9t21.5 9t9 22v0h1q11 89 76 150t155 66h13.5h13.5q89 -5 154.5 -66t76.5 -150h1v0q0 -13 9 -22t21.5 -9t21.5 9t9 22v0v0v0zM504 287q-64 0 -109 45t-45 109t45 109t109 45t109 -45t45 -109
t-45 -109t-109 -45v0zM504 287z" />
    <glyph glyph-name="finish" unicode="&#xe624;" 
d="M511.5 -101q-98.5 0 -188 38.5t-154.5 103.5t-103.5 154.5t-38.5 188t38.5 188.5t103.5 154.5t154.5 103t188 38.5t188 -38.5t154.5 -103t103.5 -154.5t38.5 -188.5t-38.5 -188t-103.5 -154.5t-154.5 -103.5t-188 -38.5zM511 837q-92 0 -175.5 -36t-144.5 -96.5
t-97 -144.5t-36 -176t36 -176t97 -144.5t144.5 -96.5t175.5 -36t176 36t145 96.5t96.5 144.5t35.5 176t-35.5 176t-96.5 144.5t-145 96.5t-176 36zM434 185q-13 0 -22 9l-165 165q-9 9 -9 22t9 22t22 9t22 -9l143 -143l297 297q10 10 22.5 10t22 -9.5t9.5 -22.5t-9 -22
l-320 -319q-9 -9 -22 -9z" />
    <glyph glyph-name="heart-line" unicode="&#xe622;" 
d="M512 -77l-13 9q-445 313 -467 586v54q5 62 27 113.5t54.5 83.5t69.5 51t75 23q64 6 113.5 -7t79 -34t61.5 -58q32 37 61.5 58t79 34t113.5 7q38 -4 75 -23t69.5 -51t54.5 -83t27 -112v-54q-11 -139 -126.5 -284.5t-340.5 -303.5zM302 800q-18 0 -39 -2q-68 -7 -123 -66.5
t-63 -161.5v-50q20 -247 435 -542q416 295 435 544v50q-8 100 -63 159.5t-123 66.5q-82 8 -130 -15t-102 -88l-17 -20l-17 20q-48 57 -88.5 81t-104.5 24z" />
    <glyph glyph-name="line-notice" unicode="&#xe60d;" 
d="M518.5 99q-15.5 0 -27 11t-11.5 26v51q0 15 11.5 26.5t27 11.5t26.5 -11.5t11 -26.5v-51q0 -15 -11 -26t-26.5 -11zM518.5 300q-15.5 0 -27 11.5t-11.5 26.5v328q0 16 11.5 27t27 11t26.5 -11t11 -27v-328q0 -15 -11 -26.5t-26.5 -11.5zM518 -78q-123 0 -230 59
q-11 6 -5 17t17 5q102 -56 218 -56q92 0 176.5 36t145 97t96.5 145t36 176t-36 176.5t-96.5 145t-145 96.5t-176.5 36t-176 -36t-145 -96.5t-97 -145t-36 -176.5q0 -81 28.5 -157.5t81.5 -138.5q8 -9 -1.5 -17.5t-17.5 1.5q-56 65 -86 145.5t-30 166.5q0 98 38 186.5
t102 152.5t153 102.5t186.5 38.5t186 -38.5t152.5 -102.5t102 -152.5t38 -186t-38 -186.5t-102 -153t-152.5 -102t-186.5 -38z" />
    <glyph glyph-name="car-sent" unicode="&#xe657;" 
d="M757 -4q-46 0 -79 33t-33 80v13h-194q-4 -2 -8 -2h-62v0q-5 -43 -37 -71.5t-75 -28.5t-75 28.5t-37 71.5h-61q-8 0 -13.5 5t-5.5 13v290q0 5 3 10l99 163q36 56 104 56h141q3 51 40.5 87t88.5 36h277q53 0 91 -38t38 -91v-428q0 -39 -26 -68t-64 -33v-13q0 -47 -32.5 -80
t-79.5 -33v0zM757 184q-31 0 -53 -22t-22 -53t22 -53.5t53 -22.5t53 22.5t22 53.5t-22 53t-53 22zM269 208q-31 0 -53 -22.5t-22 -53.5t22 -53t53 -22t53 22t22 53t-22 53.5t-53 22.5zM269 245q40 0 70.5 -25t39.5 -63h2h43v462h-141q-48 0 -72 -38l-97 -158v-266h45
q9 38 39.5 63t70.5 25zM462 159h195q14 28 41 45t59 17t59 -17t42 -45q26 0 45 19t19 45v428q0 38 -27 64.5t-65 26.5h-277q-37 0 -64 -26.5t-27 -64.5v-492zM310 405h-119q-8 0 -13.5 5.5t-5.5 13t5.5 13t13.5 5.5h100v101q0 7 5.5 12.5t13.5 5.5t13 -5.5t5 -12.5v-119
q0 -8 -5 -13.5t-13 -5.5z" />
    <glyph glyph-name="plane" unicode="&#xe642;" 
d="M794 543q-30 0 -58 -13q-79 -42 -136 -67q-2 -1 -4 -1q-17 2 -111.5 14t-145.5 18q-12 2 -31 -13q-5 -4 -14 -11t-10 -8q-9 -8 -7 -14.5t9 -9.5l136 -69q6 -5 5 -9t-5 -7l-72 -34q-3 -1 -7 0q-18 8 -55.5 20.5l-37.5 12.5q-22 8 -37 -9q-7 -7 -8 -18q-2 -10 6 -17l82 -76
q9 -8 31 -7q29 1 53 3q17 1 33 10q67 35 175.5 94t183.5 100.5l75 41.5q15 9 19 22t-3 21q-22 26 -66 26v0v0v0zM512 896q-139 0 -257 -68.5t-186.5 -186.5t-68.5 -257t68.5 -257t186.5 -186.5t257 -68.5t257 68.5t186.5 186.5t68.5 257t-68.5 257t-186.5 186.5t-257 68.5z
M512 -105q-100 0 -190.5 38.5t-156 104t-104 156t-38.5 190.5t38.5 190.5t104 156t156 104t190.5 38.5t190.5 -38.5t156 -104t104 -156t38.5 -190.5t-38.5 -190.5t-104 -156t-156 -104t-190.5 -38.5z" />
    <glyph glyph-name="wallet" unicode="&#xe638;" 
d="M895 -36h-766q-25 0 -44 13q-20 15 -20 37v556q0 22 20 37q19 13 44 13h766q25 0 44 -13q20 -15 20 -37v-556q0 -22 -20 -37q-19 -13 -44 -13zM129 589q-14 0 -23.5 -6t-9.5 -13v-556q0 -7 9.5 -13t23.5 -6h766q14 0 23.5 6t9.5 13v556q0 7 -9.5 13t-23.5 6h-766z
M750 203h71v-72h-71v72zM192 389h558v-31h-558v31zM895 -36h-766q-25 0 -44 13q-20 15 -20 37v747q0 18 12.5 30.5t30.5 12.5h642q18 0 30.5 -12.5t12.5 -30.5v-141h102q25 0 44 -13q20 -15 20 -37v-556q0 -22 -20 -37q-19 -13 -44 -13zM108 773q-5 0 -8.5 -3.5t-3.5 -8.5
v-747q0 -7 9.5 -13t23.5 -6h766q14 0 23.5 6t9.5 13v556q0 7 -9.5 13t-23.5 6h-133v172q0 5 -3.5 8.5t-8.5 3.5h-642z" />
    <glyph glyph-name="commodity-line" unicode="&#xe630;" 
d="M883 -4l-51 565q-2 24 -20.5 40.5t-41.5 16.5h-83v38q0 73 -51 124.5t-123.5 51.5t-124 -51.5t-51.5 -124.5v-144q-13 -6 -21.5 -17.5t-8.5 -26.5q0 -19 14 -33t33.5 -14t33 14t13.5 33q0 15 -8 26.5t-21 17.5v71h280v-72q-29 -11 -29 -43q0 -19 14 -33t33 -14t33 14
t14 33q0 15 -8.5 26.5t-21.5 17.5v71h83q10 0 18 -7.5t9 -17.5l51 -565q1 -9 -5 -15.5t-15 -6.5h-632q-9 0 -15 6.5t-5 15.5l51 565q1 10 8.5 17t17.5 8h101q7 0 12 5t5 12.5t-5 12.5t-12 5h-101q-23 0 -41 -16.5t-20 -40.5l-51 -565q-2 -24 14 -42t41 -18h632q25 0 41 18
t14 42v0v0zM652 618h-280v38q0 58 41 99.5t99 41.5t99 -41.5t41 -99.5v-38v0z" />
    <glyph glyph-name="wenhao" unicode="&#xe6c5;" 
d="M513 747q-91 0 -174 -35t-142.5 -95t-95 -142.5t-35.5 -173.5t35.5 -174t95 -142.5t142.5 -95t174 -35.5t173.5 35.5t142.5 95t95.5 142.5t35.5 174t-35.5 173.5t-95.5 142.5t-142.5 95t-173.5 35zM546 34h-74v81h74v-81zM654 391q-20 -37 -54 -64t-47 -54t-13 -37v-23
h-61v33q0 30 15.5 59t51.5 62q27 23 37 48.5t10 48.5q0 44 -20 66t-57 22t-62 -28.5t-25 -92.5h-77q3 94 50 139.5t114 45.5q74 0 116 -40.5t42 -104.5q0 -43 -20 -80z" />
    <glyph glyph-name="qrcode" unicode="&#xe64e;" 
d="M175 721h62v-63h-62v63zM406 832h63v-62h-63v62zM469 770h62v-63h-62v63zM531 707h63v-62h-63v62zM531 582h63v-62h-63v62zM406 707h63v-62h-63v62zM406 582h63v-62h-63v62zM469 645h62v-63h-62v63zM531 832h63v-62h-63v62zM175 105h62v-62h-62v62zM786 721h62v-63h-62
v63zM64 832v-285h285v285h-285zM298 598h-184v183h184v-183zM64 222v-285h285v285h-285zM298 -13h-184v184h184v-184zM675 832v-285h284v285h-284zM909 598h-184v183h184v-183zM64 353h62v-63h-62v63zM126 415h63v-62h-63v62zM189 478h62v-63h-62v63zM314 478h62v-63h-62v63
zM376 415h62v-62h-62v62zM500 288h62v-62h-62v62zM500 163h62v-62h-62v62zM687 101h63v-63h-63v63zM835 129h62v-63h-62v63zM625 163h62v-62h-62v62zM687 226h63v-63h-63v63zM750 163h62v-62h-62v62zM750 288h62v-62h-62v62zM897 191h62v-62h-62v62zM897 319h62v-62h-62v62z
M897 63h62v-62h-62v62zM768 1h62v-62h-62v62zM500 415h62v-62h-62v62zM562 351h63v-63h-63v63zM437 478h63v-63h-63v63zM594 520h62v-63h-62v63zM656 457h62v-62h-62v62zM625 290h62v-62h-62v62zM687 353h63v-63h-63v63zM718 520h63v-63h-63v63zM781 457h62v-62h-62v62z
M843 536h63v-63h-63v63zM897 456h62v-62h-62v62zM189 353h62v-63h-62v63zM314 353h62v-63h-62v63zM375 288h62v-62h-62v62zM437 226h63v-63h-63v63zM375 163h62v-62h-62v62zM370 -1h62v-62h-62v62zM500 38h62v-62h-62v62zM642 1h62v-62h-62v62zM562 101h63v-63h-63v63z
M251 415h63v-62h-63v62zM64 478h62v-63h-62v63z" />
    <glyph glyph-name="mp-search" unicode="&#xe656;" 
d="M186 392h-53q0 117 83 200.5t201 83.5v-53q-96 0 -163.5 -67.5t-67.5 -163.5zM982 -172l-285 284q54 56 84 128.5t30 152.5q0 110 -54 203.5t-147.5 147.5t-203 54t-203 -54t-148 -147.5t-54.5 -203.5t54.5 -203t148 -147.5t202.5 -54.5q142 0 254 90l285 -286
q8 -8 19 -8.5t18.5 7t7.5 18.5t-8 19zM53 393q0 96 47 177.5t128.5 129t177.5 47.5t177.5 -47.5t129 -129t47.5 -177.5t-47.5 -177.5t-129 -128.5t-177.5 -47t-177.5 47t-128.5 128.5t-47 177.5z" />
    <glyph glyph-name="close" unicode="&#xe6a8;" 
d="M568 388l355 354q10 10 10 24.5t-10.5 25t-25 10.5t-24.5 -10l-354 -355l-355 355q-10 10 -24.5 10t-25 -10.5t-10.5 -25t11 -24.5l354 -354l-354 -355q-11 -10 -11 -24.5t10.5 -24.5t25 -10t24.5 10l355 354l354 -354q10 -10 24.5 -10t25 10t10.5 24.5t-10 24.5z" />
    <glyph glyph-name="diamond-block" unicode="&#xe646;" horiz-adv-x="1119" 
d="M1118 590q-1 3 -3 6l-155 260l-121 -266h279zM351 590h414l-207 293zM516 896h-293q-17 0 -34 -11l125 -274zM929 889q-15 7 -29 7h-299l201 -285zM339 548l219 -676h1l218 676h-438zM159 849l-151 -253l-3 -6h272zM0 548l1 -2h2q5 -6 11 -13l479 -597l-198 612h-295z
M1119 548h-298l-202 -628l492 613q5 6 8 15v0zM1119 548z" />
    <glyph glyph-name="partner" unicode="&#xe645;" 
d="M750.5 299.5q-46.5 46.5 -106.5 71.5q-9 4 -20 8q42 28 66 72t24 95q0 83 -59 142t-142 59t-142 -59t-59 -142q0 -51 24.5 -95t65.5 -72l-20 -8q-60 -25 -106.5 -71.5t-71.5 -106.5q-27 -63 -27 -131q0 -11 7.5 -18.5t18.5 -7.5t18.5 7.5t7.5 18.5q0 118 83 201
q79 78 190 83q6 -1 11.5 -1t10.5 1q111 -5 190 -83q83 -83 83 -201q0 -11 7.5 -18.5t18.5 -7.5t18.5 7.5t7.5 18.5q0 68 -26 131q-26 60 -72.5 106.5zM364 546q0 62 44 105.5t105.5 43.5t105 -43.5t43.5 -105.5q0 -58 -40 -101t-98 -47h-11h-10q-59 4 -99 47t-40 101z
M282 386q10 0 18 7.5t8 18.5v0v1q0 10 -8 18t-18 8q-4 0 -9 -1q-44 4 -74.5 36.5t-30.5 77.5q0 47 33.5 80t80.5 33q10 0 18 8t8 18.5t-8 18t-18 7.5q-69 0 -117.5 -48.5t-48.5 -116.5q0 -40 17.5 -74.5t48.5 -57.5q-53 -21 -94 -62q-80 -80 -80 -193q0 -11 7.5 -18.5
t18.5 -7.5t18.5 7.5t7.5 18.5q0 92 65 157q61 61 148 64h9zM938 358q-41 41 -93 62q30 23 47.5 57.5t17.5 74.5q0 68 -48.5 116.5t-116.5 48.5q-11 0 -18.5 -7.5t-7.5 -18t7.5 -18.5t18.5 -8q47 0 80 -33t33 -80q0 -45 -30.5 -77.5t-74.5 -36.5q-5 1 -8 1q-11 0 -18.5 -8
t-7.5 -18v-1v0q0 -11 7.5 -18.5t18.5 -7.5h9q86 -3 147 -64q65 -65 65 -157q0 -11 7.5 -18.5t18.5 -7.5t18.5 7.5t7.5 18.5q0 113 -80 193z" />
    <glyph glyph-name="moments-block" unicode="&#xe6e0;" 
d="M346 773q-124 -62 -186 -186h372zM671 792q-67 24 -139 24t-139 -24l278 -283v283zM141 544q-25 -69 -25 -143q0 -60 16 -118l313 261h-304zM714 774v-378l205 157q-28 72 -81.5 129.5t-123.5 91.5zM695 19q67 28 120.5 78t86.5 115l-396 20zM934 509l-307 -243l296 -8
q25 69 25 143q0 55 -14 108zM384 12q71 -26 148 -26q62 0 120 17l-268 307v-298zM341 32v364l-191 -160q28 -66 77.5 -118.5t113.5 -85.5z" />
    <glyph glyph-name="newbrand" unicode="&#xe640;" 
d="M459 51q-18 0 -30 12l-275 275q-12 12 -12 30t12 31l385 384q17 17 44 17q6 0 12 -1l206 -47q14 -4 26 -16t16 -26l47 -206q3 -14 -1.5 -30t-14.5 -27l-384 -384q-13 -12 -31 -12v0zM185 368v0l274 -274v0l384 384q7 7 5 16l-47 206q-1 3 -4 6t-6 4l-206 47h-2
q-9 0 -14 -5l-384 -384v0zM690.5 655.5q11.5 11.5 28 11.5t28 -11.5t11.5 -28t-11.5 -28t-28 -11.5t-28 11.5t-11.5 28t11.5 28zM459.5 -54q-13.5 0 -23.5 9l-289 290l15 15l290 -289q7 -8 15 0l399 399l15 -15l-399 -400q-9 -9 -22.5 -9z" />
    <glyph glyph-name="sort-line" unicode="&#xe647;" 
d="M733 -120h-39q-12 0 -20 8.5t-8 19.5v980h56v-940l230 231l40 -40zM302 820l-230 -231l-40 40l259 259h39q12 0 20 -8.5t8 -19.5v-980h-56v940z" />
    <glyph glyph-name="theme" unicode="&#xe7aa;" 
d="M877 374q-5 -27 -36 -46q-63 -36 -174 -97q-61 -112 -98 -178q-20 -34 -50 -34h-1q-22 0 -43 19q-53 48 -146 136q-131 22 -200 36q-29 5 -41 29q-12 25 2 56q30 66 86 182q-17 129 -24 199q-3 27 16 48q20 23 50 19q66 -6 200 -22q114 55 180 86q15 7 30 7q22 0 38 -14
t20 -37q14 -69 36 -194q91 -95 135 -143q24 -26 20 -52v0zM825 397q-13 15 -32.5 35.5t-37.5 39.5t-33.5 35t-25.5 26.5l-10 10.5q-4 5 -5 11q-19 111 -37 199q-3 17 -16 17q-5 0 -12 -3q-62 -29 -185 -89q-6 -3 -12 -2q-38 7 -206 24v0q-9 0 -13 -6q-6 -6 -5 -15
q14 -139 24 -204q1 -7 -2 -12q-47 -97 -88 -187q-6 -12 -3 -18t11 -7q134 -26 206 -37q6 -1 11 -5l10.5 -10t27.5 -26t36 -34t40 -37.5t36 -32.5q9 -8 14.5 -8t12.5 12q44 77 101 183q3 6 9 9l12.5 7t32.5 18t42.5 23.5t47.5 26.5t43 24q14 8 15 15q1 6 -9 17v0zM935 -40
q-6 -6 -15 -6t-15 6l-172 172q-6 7 -6 15.5t6 15t15 6.5t15 -6l172 -172q7 -7 7 -15.5t-7 -15.5v0z" />
    <glyph glyph-name="smile" unicode="&#xe737;" 
d="M512 858q-96 0 -184 -37.5t-151.5 -101t-101 -151.5t-37.5 -184t37.5 -184t101 -151.5t151.5 -101t184 -37.5t184 37.5t151.5 101t101 151.5t37.5 184t-37.5 184t-101 151.5t-151.5 101t-184 37.5zM512 -50q-88 0 -168.5 34.5t-138.5 92.5t-92.5 138.5t-34.5 168.5
t34.5 168.5t92.5 138.5t138.5 92.5t168.5 34.5t168.5 -34.5t138.5 -92.5t92.5 -138.5t34.5 -168.5t-34.5 -168.5t-92.5 -138.5t-138.5 -92.5t-168.5 -34.5zM737.5 276q-7.5 3 -15 -0.5t-10.5 -11.5q-23 -63 -78 -102t-122 -39t-122 39t-78 103q-3 7 -10.5 10.5t-15 1
t-11 -10t-0.5 -14.5q26 -76 91.5 -122t145.5 -46t145 46t92 121q3 7 -0.5 14.5t-11 10.5zM328.5 545q29.5 0 51 -25.5t21.5 -61.5q0 -9 5.5 -14.5t14 -5.5t14 5.5t5.5 14.5q0 52 -32.5 89t-78.5 37t-79 -37t-33 -89q0 -9 6 -14.5t14 -5.5t14 5.5t6 14.5q0 36 21 61.5
t50.5 25.5zM695 584q-46 0 -78.5 -37t-32.5 -89q0 -8 6 -14t14 -6t13.5 6t5.5 14q0 36 21.5 61.5t51 25.5t50.5 -25.5t21 -61.5q0 -8 6 -14t14 -6t14 6t6 14q0 52 -33 89t-79 37z" />
    <glyph glyph-name="help" unicode="&#xe608;" horiz-adv-x="1366" 
d="M680 862q24 0 69 -25l289 -167q44 -26 57 -47q12 -22 12 -73v-333q0 -52 -12 -73q-13 -22 -57 -48l-289 -166q-45 -26 -69.5 -26t-69.5 26l-288 166q-45 26 -57 47.5t-12 72.5v334q0 52 12 73t57 47l288 167q45 25 70 25zM680 897q-34 0 -87 -30l-289 -167
q-52 -30 -69 -59.5t-17 -90.5v-333q0 -61 17 -90.5t69 -60.5l289 -166q53 -31 87 -31t87 31l288 166q53 31 70 60.5t17 90.5v333q0 61 -17 90.5t-70 59.5l-289 167q-52 30 -86 30v0v0zM680 897zM617 282q-6 -2 -9.5 -7.5t-1.5 -11t8 -8t13 0.5l115 41q7 2 10.5 7.5t1.5 11
t-8 7.5t-13 0zM617 282zM617 235q-6 -2 -9.5 -7.5t-1.5 -11t8 -8t13 -0.5l115 41q7 3 10.5 8.5t1.5 11t-8 7.5t-13 0zM617 235zM635 191q0 -5 5 -10.5t12 -6.5q31 -8 62 0q7 1 12 6.5t5 10.5q0 11 -17 7q-31 -8 -62 0q-17 4 -17 -7v0zM635 191zM797 480q0 48 -34.5 82.5
t-83 34.5t-83 -34.5t-34.5 -82.5q0 -37 31 -106l8 -18q8 -15 23 -15q7 0 9.5 4.5t-0.5 10.5q-43 88 -43 124q0 37 26.5 63t63.5 26t63 -26t26 -63q0 -13 -7 -36.5t-15 -41.5l-7 -18q-7 -16 -23 -21l-99 -35q-7 -2 -10 -7.5t-1.5 -11t7.5 -8t13 -0.5l97 35q12 4 22 7q7 1 9 7
l1.5 3l3.5 7t3 7l3 7q31 69 31 106v0zM797 480z" />
    <glyph glyph-name="round-line" unicode="&#xe60f;" 
d="M160 168q-13 0 -19 11q-67 123 -47 263t119 239q102 102 244.5 120.5t263.5 -51.5l-35 90q-3 9 1 17t12 11.5t16.5 -0.5t11.5 -12l60 -157q6 -15 -7.5 -25t-26.5 1q-114 93 -259.5 86t-249.5 -111q-89 -89 -107 -214.5t42 -235.5q5 -8 2.5 -16.5t-10.5 -13.5
q-5 -2 -11 -2zM307 -102q-16 0 -21 15l-49 152q-5 16 8.5 25t25.5 -1q114 -94 259.5 -86.5t249.5 111.5q89 88 107 214t-42 236q-5 8 -2.5 16.5t10.5 13t17 2t13 -10.5q67 -123 47 -263t-119 -239q-103 -104 -247 -121.5t-266 55.5l29 -90q3 -9 -1 -17t-13 -11q-3 -1 -6 -1
v0zM451 384q0 -22 15 -37t36.5 -15t36.5 15t15 37t-15 37t-36.5 15t-36.5 -15t-15 -37z" />
    <glyph glyph-name="erath" unicode="&#xe615;" 
d="M512 885q102 0 195 -39.5t160 -107t106.5 -159.5t39.5 -193t-39.5 -193.5t-106.5 -159.5t-160 -107t-195 -40q-101 0 -193.5 40t-159.5 107t-107 159.5t-40 193t40 193t107 160t159.5 107t193.5 39.5zM272 233l23 93l-35 39l-200 17l-13 -7q6 -160 102 -279l18 57
q1 3 7 8zM978 386q0 46 -7 79l-42 1l16 -45q6 -9 -4 -18l-64 -61l-67 -112l14 -97q0 -7 -2 -10l-58 -104q-5 -8 -15 -8l-46 1q-13 0 -16 13l-100 266l-96 9q-10 0 -16 12l-31 97q0 12 5 17l66 75l6 53q0 9 7 12l98 74l-33 107q-3 12 7 19l73 56q-78 28 -154 28
q0 -5 -4 -10.5t-10 -6.5l-84 -20l-90 -85q-6 -7 -14 -6t-14 9l-31 53q-68 -44 -118 -104l30 -16l47 46q8 7 16.5 5.5t12.5 -10.5l21 -48q1 -2 1 -6.5t-1 -7.5l-35 -80q-3 -7 -15 -11l-29 -3l12 -34q4 -6 0 -13t-12 -9l-49 -11q-13 -3 -20 11l-17 42l-51 -21q-13 -48 -16 -98
l7 1l212 -17q6 0 11 -6l47 -50q5 -6 5 -16l-26 -109q-5 -9 -7 -10l-98 -72l-21 -74q64 -67 150.5 -104.5t182.5 -37.5q95 0 181.5 37t148.5 99t99 148t37 181zM160 521l15 3l-12 34q-4 7 0.5 14t13.5 8l40 6l29 64l-7 18l-41 -37q-9 -9 -21 -3l-45 22q-27 -35 -51 -92l37 15
q6 3 13 0.5t9 -8.5zM395 834q-39 -8 -92 -33l20 -33zM714 47l24 -1l51 89l-14 98q0 7 2 11l65 108l-46 100l-256 25l-58 -67l25 -77l94 -9q4 0 8.5 -3.5t5.5 -8.5l99 -265v0zM826 470l40 -90l44 41l-21 58q-4 9 1 15.5t15 6.5l59 -1q-23 90 -79.5 164.5t-135.5 120.5l-55 9
l-63 -47l33 -109q4 -12 -7 -19l-101 -75l-2 -16l100 65q5 3 12 2t11 -6l28 -42l14 4l-30 61q-5 10 1 18t18 6l74 -14q5 -1 9.5 -5.5t4.5 -9.5l5 -62l30 -1q9 -2 13.5 -9t0.5 -16zM657 556l-73 -49l212 -18l9 21l-21 2q-6 0 -11 4.5t-5 11.5l-5 61l-28 5l24 -49q4 -8 1 -15
t-11 -9l-46 -13q-12 -3 -19 7z" />
    <glyph glyph-name="point" unicode="&#xe7ae;" 
d="M512 384zM258 384q0 105 74.5 179.5t179.5 74.5t179.5 -74.5t74.5 -179.5t-74.5 -179.5t-179.5 -74.5t-179.5 74.5t-74.5 179.5z" />
    <glyph glyph-name="download-block" unicode="&#xe6c7;" 
d="M512 831q-91 0 -174 -35.5t-142.5 -95t-95 -142.5t-35.5 -174t35.5 -174t95 -142.5t142.5 -95t174 -35.5t174 35.5t142.5 95t95 142.5t35.5 174t-35.5 174t-95 142.5t-142.5 95t-174 35.5zM728 320l-192 -156q-9 -10 -22.5 -10t-23.5 10l-193 156q-10 11 -10 25.5
t10 25.5q12 13 23 13q9 0 23 -11l138 -110v316q0 15 9.5 25t23 10t23 -10t9.5 -25v-318l133 114q26 22 47 -1q10 -11 11 -27t-9 -27z" />
    <glyph glyph-name="code" unicode="&#xe609;" 
d="M431 496q-7 0 -12 5l-73 74q-5 5 -5 12t4.5 12t11.5 5t12 -5l74 -74q5 -5 5 -12t-5 -12t-12 -5zM592.5 496q-6.5 0 -11.5 5t-5 12t5 12l74 74q4 5 11 5t12 -5t5 -12t-5 -12l-74 -74q-5 -5 -11.5 -5zM684 457h-347q-7 0 -11.5 5t-4.5 12t4.5 12t11.5 5h347q7 0 12 -5
t5 -12t-5 -12t-12 -5zM684 332h-347q-7 0 -11.5 4.5t-4.5 11.5t4.5 12t11.5 5h347q7 0 12 -5t5 -12t-5 -11.5t-12 -4.5zM510.5 189q-6.5 0 -11.5 5t-5 12v266q0 7 5 12t11.5 5t11.5 -5t5 -12v-266q0 -7 -5 -12t-11.5 -5zM795 89q-6 0 -10 3q-15 11 -37.5 16.5t-33 6
t-15.5 0.5h-1h-559q-24 0 -42.5 15t-23.5 39q-28 12 -28 41v46q0 21 14 33q-14 12 -14 33v46q0 21 14 33q-14 12 -14 33v46q0 21 14 33q-14 12 -14 33v46q0 30 30 42v0q6 22 24 35.5t40 13.5h741q21 0 38 -12t24 -32q1 -1 1.5 -2t0.5 -2q30 -12 30 -42v-46q0 -21 -14 -33
q14 -12 14 -33v-46q0 -21 -14 -33q14 -12 14 -33v-46q0 -21 -14 -33q14 -12 14 -33v-46q0 -29 -29 -41q-4 -24 -22.5 -39.5t-42.5 -15.5h-29q-7 0 -12 5t-5 12t5 11.5t12 4.5h29q13 0 22 9t11 22q0 3 2 6q5 11 16 15q10 4 10 11v46q0 8 -10 11q-10 4 -15 14q-5 8 0 17t15 13
t10 11v46q0 7 -10 11t-15 14q-5 8 0 16q5 10 15 14t10 11v46q0 7 -10 11t-15 13t0 17q5 10 15 14q10 3 10 11v46q0 7 -10 11q-11 4 -16 15q-3 3 -4 6q-3 11 -11.5 18t-19.5 7h-741q-12 0 -20.5 -7t-11.5 -18q0 -2 -1 -3q-6 -14 -18 -19q-10 -4 -10 -11v-46q0 -7 9.5 -11
t15.5 -12q2 -4 2 -9v-2q0 -5 -2 -9q-6 -8 -15.5 -11.5t-9.5 -11.5v-46q0 -7 9.5 -11t15.5 -12q2 -4 2 -9v-2q0 -4 -2 -9q-6 -8 -15.5 -11.5t-9.5 -11.5v-46q0 -7 9.5 -11t15.5 -12q2 -4 2 -9v-1q0 -5 -2 -10q-6 -8 -15.5 -11.5t-9.5 -11.5v-46q0 -7 10 -11t16 -13q1 -3 2 -7
q1 -13 10.5 -22t22.5 -9h559q63 2 106 -29q6 -4 7 -10.5t-3 -12.5q-5 -7 -13 -7v0z" />
    <glyph glyph-name="cart" unicode="&#xe65c;" 
d="M362 74q-17 0 -29 -11.5t-12 -28.5t12 -29t29 -12t29 12t12 29t-12 28.5t-29 11.5v0zM757 74q-17 0 -29 -11.5t-12 -28.5t12 -29t29 -12t29 12t12 29t-12 28.5t-29 11.5v0zM913 631q-25 32 -62 32h-619l-6 48q-4 27 -25 45.5t-50 18.5h-35q-8 0 -13.5 -6t-5.5 -13.5
t5.5 -13t13.5 -5.5h35q13 0 24.5 -7.5t13.5 -21.5l72 -543q3 -27 24 -43t50 -16h479q8 0 13.5 5t5.5 13t-5.5 13t-13.5 5h-479q-15 0 -25 8t-12 21l-6 45h476q27 0 47 13.5t26 37.5l83 302q10 35 -11 62v0zM888 578l-83 -302q-6 -22 -37 -22h-481l-50 371h614q19 0 32 -16
q10 -13 5 -31v0z" />
    <glyph glyph-name="wechat" unicode="&#xe60c;" 
d="M693 549q15 0 35 -2q-23 109 -127.5 181.5t-238.5 72.5q-98 0 -181 -40.5t-132 -111.5t-49 -156q0 -143 145 -245l-36 -109l127 64q6 -2 25 -5.5t27 -5t22.5 -4t26.5 -3t25 -0.5q16 0 34 1q-11 38 -11 76q0 119 89.5 203t218.5 84zM498 647q21 0 33.5 -12.5t12.5 -33
t-12.5 -33t-33.5 -12.5t-37.5 13t-16.5 32.5t16.5 32.5t37.5 13zM245 556q-22 0 -38.5 13t-16.5 32.5t16.5 32.5t38.5 13q20 0 32.5 -12.5t12.5 -33t-12.5 -33t-32.5 -12.5zM1024 266q0 71 -43 132t-113.5 96t-151.5 35q-129 0 -218.5 -77t-89.5 -186t89.5 -186t218.5 -77
q37 0 109 18l99 -54l-27 90q127 96 127 209zM616 312q-13 0 -24.5 11t-11.5 24.5t11.5 25t24.5 11.5q20 0 33 -11t13 -25.5t-13 -25t-33 -10.5zM815 312q-13 0 -24.5 11t-11.5 24.5t11.5 25t24.5 11.5q20 0 33 -11t13 -25.5t-13 -25t-33 -10.5z" />
    <glyph glyph-name="calendar" unicode="&#xe64f;" 
d="M791 776h-56v56h-56v-56h-336v56h-56v-56h-56q-46 0 -79 -33t-33 -79v-616q0 -46 33 -79t79 -33h560q46 0 79 33t33 79v616q0 46 -33 79t-79 33zM231 720h56v-56h56v56h336v-56h56v56h56q23 0 39.5 -16.5t16.5 -39.5v-112h-672v112q0 23 16.5 39.5t39.5 16.5zM791 -8
h-560q-23 0 -39.5 16.5t-16.5 39.5v448h672v-448q0 -23 -16.5 -39.5t-39.5 -16.5zM287 384h448v-56h-448v56zM287 214h448v-56h-448v56z" />
    <glyph glyph-name="bulb" unicode="&#xe6dd;" 
d="M864 480q0 96 -47 177t-128 128t-177 47t-177 -47t-128 -128t-47 -177v0v0v0q0 -8 1 -20q3 -24 8 -50q17 -82 57 -151q52 -88 136 -142q13 -8 21.5 5.5t-4.5 21.5q-78 50 -125 131q-38 64 -54 142q-5 24 -7 46q-1 11 -1 17q0 87 43 160.5t116.5 116.5t160.5 43t160.5 -43
t116.5 -116.5t43 -160.5q0 -6 -1 -17q-2 -22 -7 -46q-16 -78 -54 -142q-47 -81 -125 -131q-13 -8 -4.5 -21.5t21.5 -5.5q84 54 136 142q40 69 57 151q5 26 8 50q1 12 1 20v0v0zM370 114h282q7 0 11.5 5t4.5 11.5t-4.5 11t-11.5 4.5h-282q-7 0 -11.5 -4.5t-4.5 -11t4.5 -11.5
t11.5 -5zM384 32h256q7 0 11.5 4.5t4.5 11.5t-4.5 11.5t-11.5 4.5h-256q-7 0 -11.5 -4.5t-4.5 -11.5t4.5 -11.5t11.5 -4.5zM416 -64h192q7 0 11.5 4.5t4.5 11.5t-4.5 11.5t-11.5 4.5h-192q-7 0 -11.5 -4.5t-4.5 -11.5t4.5 -11.5t11.5 -4.5z" />
    <glyph glyph-name="address" unicode="&#xe60a;" 
d="M893 494v-21l-3 -12t-3 -13q-14 -74 -54 -138q-116 -252 -321 -438q-205 186 -321 438q-40 64 -54 138q-1 5 -3 13l-3 12v21q-1 5 -0.5 10.5t0.5 10.5q0 104 51 191.5t139 138.5t191 51t191 -51t139 -138.5t51 -191.5q0 -5 0.5 -10.5t-0.5 -10.5zM850 515q0 92 -45.5 170
t-123 123t-169.5 45t-169.5 -45t-123 -123t-45.5 -170q0 -5 -0.5 -9.5t0.5 -9.5v-18q1 -4 2.5 -11t3.5 -11q11 -66 47 -123q103 -224 285 -389q182 165 285 389q36 57 47 123q2 4 3.5 11t2.5 11v18q1 5 0.5 9.5t-0.5 9.5zM512 388q-66 0 -112.5 46.5t-46.5 112.5t46.5 112.5
t112.5 46.5t112.5 -46.5t46.5 -112.5t-46.5 -112.5t-112.5 -46.5zM512 663q-48 0 -82 -34t-34 -82t34 -82t82 -34t82 34t34 82t-34 82t-82 34z" />
    <glyph glyph-name="service" unicode="&#xe658;" 
d="M818 144h-32v378q0 113 -80.5 194t-194.5 81t-194.5 -81t-80.5 -194v-364h-32v364q0 127 90 217t217 90t217 -90t90 -217v-378zM186 128h-63q-26 0 -45 18.5t-19 45.5v267q0 27 19 45.5t45 18.5h107v-32h-107q-13 0 -22.5 -9.5t-9.5 -22.5v-267q0 -13 9.5 -22.5
t22.5 -9.5h63v-32zM899 128h-113v32h113q13 0 22.5 9.5t9.5 22.5v267q0 13 -9.5 22.5t-22.5 9.5h-107v32h107q27 0 46 -18.5t19 -45.5v-267q0 -27 -19 -45.5t-46 -18.5zM391 17q-66 0 -116 37q-45 35 -70 96l-1 3v10h32v-4q23 -53 63 -81.5t92 -28.5v-32v0zM555 -38h-121
q-27 0 -46 19t-19 46v29q0 27 19 46t46 19h121q26 0 45 -19t19 -46v-29q0 -27 -19 -46t-45 -19zM434 88q-14 0 -23.5 -9.5t-9.5 -22.5v-29q0 -13 9.5 -22.5t23.5 -9.5h121q13 0 22.5 9.5t9.5 22.5v29q0 13 -9.5 22.5t-22.5 9.5h-121z" />
    <glyph glyph-name="form-up" unicode="&#xe62c;" 
d="M917 -5h-752q-15 0 -26 11t-11 26v748q0 9 -6.5 15.5t-15 6.5t-15 -6.5t-6.5 -15.5v-748q0 -33 23.5 -56.5t56.5 -23.5h752q9 0 15.5 6t6.5 15t-6.5 15.5t-15.5 6.5zM198.5 261q8.5 0 15.5 7l173 173l170 -170q6 -6 15 -6t15 6l224 224v-142q0 -9 6.5 -15t15 -6t15 6
t6.5 15v192q0 9 -6.5 15.5t-14.5 6.5h-188q-9 0 -15.5 -6.5t-6.5 -15.5t6.5 -15t15.5 -6h134l-207 -207l-170 170q-7 6 -15 6v0q-9 0 -16 -6l-188 -189q-6 -6 -6 -15t6.5 -15.5t15 -6.5z" />
    <glyph glyph-name="down-arrow" unicode="&#xe601;" 
d="M127 530l340 -355h-1l46 -47l46 47h-1l340 355l-46 47l-339 -354l-339 354z" />
    <glyph glyph-name="box3d" unicode="&#xe604;" 
d="M344 792q172 -90 232 -119q-2 -2 -6 -2h-17.5h-17.5q-3 0 -6 1q-23 12 -65 33.5t-60 30.5q-21 11 -66 34q-7 4 -15 8q-3 2 -6 0q-21 -10 -59 -29.5t-47 -24.5l-2 -1l10 -6l42 -21l42 -21l1 -1q2 -1 2 -2t-4 -1h-18h-18q-3 0 -7 2q-69 35 -70 36q-5 2 -9 0
q-12 -7 -116 -60q-2 -1 -3 -2q1 -1 5 -3q38 -19 112.5 -56.5t110.5 -55.5q29 -15 71 -36q1 -1 2 -1q2 -1 2 -2t-5 -1h-5t-6 -1q-26 -2 -54 14q-5 2 -82 41q-24 12 -74.5 37.5t-77.5 38.5q-4 2 -5 2v-34q1 -38 1 -108.5v-90.5q0 -5 0.5 -13.5t0.5 -10.5q0 -5 -5 -5h-12t-5 5
t-1 142v27v27q-1 17 -1 45v44q0 5 4 8q36 18 124 63q17 9 36.5 18.5t43.5 22t36 19.5q93 47 117 59q29 15 44 23q6 3 11 0q2 -1 27 -14q101 -51 127 -64q22 -10 79 -40q43 -21 80 -40q35 -18 64 -32l3 -2q-1 -2 -5 -2h-15.5h-20.5q-3 0 -6 1q-18 9 -51 26t-45 23
q-15 8 -43.5 22t-35.5 17q-13 8 -40.5 21.5t-39.5 19.5q-64 32 -79 40q-4 2 -9 0q-17 -9 -92 -47l-3 -2v0zM562 -67v5v135q0 6 6 5h12q2 0 3 -0.5t1 -2.5v-4v-141q0 -4 0.5 -4.5t4.5 1.5q75 38 106 54q14 7 39.5 20.5t34.5 17.5q22 11 62.5 32t57.5 30q65 33 76 38q4 3 4 8
v74.5v79.5q0 7 6 6h12q4 1 4 -4v-75v-94q0 -5 -4 -8q-31 -15 -122 -62q-47 -24 -79 -41q-98 -50 -117 -59q-50 -26 -84 -44q-4 -2 -9 0q-21 11 -58.5 30t-49.5 25q-22 11 -63.5 32t-51.5 26q-21 11 -60.5 31t-53.5 28q-90 45 -113 57q-7 4 -38.5 19.5t-47.5 24.5q-4 2 -4 6
q-1 34 -1 110v84q0 4 1 5t5 1h11q5 0 5 -6v-54v-109q0 -4 0.5 -10t0.5 -9t3 -4l13 -6.5t13 -7.5l45 -22.5l47 -23.5q18 -9 115 -59q20 -10 58 -29.5t55 -28.5q112 -56 117 -59l18 -9t17 -9q2 -1 3 0v0v0zM709 429q-4 -2 -5 -3q-97 -48 -116 -58q-4 -2 -4 -7v-156.5v-164.5
q0 -4 -1.5 -5.5t-4.5 -1.5q-2 1 -6 0t-6 -0.5t-3 2.5t-1 14v315q0 6 -6 9q-31 15 -97 49q-1 0 -166 83q-3 2 -3 3t4 1h18.5h18.5q3 0 8 -2q141 -72 233 -118q5 -2 10 0q21 11 112 57q1 0 6 3q-71 36 -231 117t-232 118q3 4 9 4h8.5h7.5q2 0 15.5 -3.5t15.5 -4.5
q19 -10 66.5 -34t64.5 -32q13 -7 36.5 -19t29.5 -15q24 -12 72.5 -36.5t73.5 -37.5l68 -34q2 -2 10.5 -6t13.5 -7q3 -1 3 -5v-146q0 -5 -5 -5q-7 1 -12 0.5t-5 4.5v47v74zM765 681h10q6 0 8.5 -1.5t7.5 -1.5q27 1 28 0q13 -7 51.5 -26t42.5 -22q61 -30 74 -37q4 -2 4 -7
v-318q0 -6 -6 -6q-3 1 -13 0q-3 0 -3 4v4v300q-1 0 -5 -2q-17 -8 -47 -22.5t-40 -19.5q-9 -5 -13 -6.5t-3 -5.5v-20q1 -5 1 -23.5t1 -28.5q0 -6 -6 -5h-11q-6 -1 -5 5q0 10 -1 32t0 34q0 4 -5 7q-22 11 -82 42q-33 17 -107 55q-20 10 -59 30t-44 23q-58 30 -59 31
q0 1 8.5 -1t16.5 -4.5t9 -2.5q6 0 11.5 -2.5t11.5 -2.5q1 0 -7 6l-16 12t-8 5q15 -7 49 -24.5t74 -38t49 -25.5q49 -25 106 -54q26 -14 53 -28q4 -2 6 0q18 8 103 50l1 1q-27 13 -93 46.5t-93 47.5v0zM709 240v85q0 6 5 5h12q5 1 5 -5v-101v-3q0 -4 4 -2q4 3 33 19
q61 35 70 41q8 4 6 12v9q-1 69 -2 76q0 8 -0.5 39.5t-0.5 36.5v0.5t-1 0.5q0 9 1.5 10.5t9.5 1.5t9 -1q2 -1 2 -2v-3v-3q1 -7 1 -34.5t1 -31.5v-25t1 -25v-22t1 -22l1 -22q0 -4 -4 -6q-20 -11 -67 -39q-49 -28 -82 -47q-3 -2 -4 -1.5t-1 4.5v55v0zM709 240z" />
    <glyph glyph-name="news" unicode="&#xe726;" 
d="M371 394q0 -21 -14.5 -36t-35.5 -15t-35.5 15t-14.5 35.5t14.5 35.5t35.5 15t35.5 -15t14.5 -35v0zM949 422q0 103 -58.5 190.5t-159.5 138.5t-219 51t-219 -51t-159.5 -138.5t-58.5 -190.5q0 -94 50 -176.5t138 -136.5v-120q0 -13 12 -20q5 -3 11 -3q7 0 13 4l55 37
q2 1 3 2l63 41q47 -9 92 -9q118 0 219 51t159.5 138.5t58.5 191.5v0zM298 143q-83 46 -129.5 120t-46.5 159q0 90 52 167t142 122t196 45t196 -45t142 -122t52 -167.5t-52 -167.5t-142 -121.5t-196 -44.5q-46 0 -93 9q-9 3 -17 -3l-73 -49l-3 -2l-16 -11v90q0 14 -12 21v0z
M571 408q0 -21 -15 -36t-35.5 -15t-35.5 15t-15 36t15 35.5t35.5 14.5t35.5 -14.5t15 -35.5v0zM768 408q0 -21 -15 -36t-36 -15t-35.5 15t-14.5 36t14.5 35.5t35.5 14.5t36 -14.5t15 -35.5v0z" />
    <glyph glyph-name="huangguanline" unicode="&#xe8d1;" 
d="M851 671q-22 -4 -38.5 -20t-20.5 -38q-7 -36 16 -63q-2 -53 -40 -90.5t-91 -37.5q-52 0 -90 36t-41 87q20 14 29.5 36.5t4.5 47.5q-4 24 -21.5 41.5t-41.5 21.5q-38 8 -67.5 -16.5t-29.5 -62.5q0 -22 11 -41t30 -30q-4 -50 -41.5 -85t-89.5 -35q-53 0 -91 37t-39 90
q22 27 16 63q-4 22 -20.5 38.5t-38.5 20.5q-35 7 -62.5 -15.5t-27.5 -58.5q0 -26 16 -46t41 -26l76 -436q2 -14 13 -23t25 -9h531q14 0 25 9t13 23l76 435q25 6 41.5 26.5t16.5 46.5q0 35 -27 58t-63 16zM228 123l-9 56h570l-10 -56q-3 -14 -14 -23.5t-25 -9.5h-473
q-14 0 -25 9.5t-14 23.5zM868 556h-14l-60 -343h-581l-60 343h-13q-17 1 -28 13t-11 28q0 18 12 30t29 12t29 -12t12 -30q0 -17 -12 -29l-5 -5v-7v-3q0 -68 48 -116.5t116 -48.5t116.5 48.5t48.5 116.5v11l-11 4q-14 6 -22.5 18t-8.5 27q0 19 14 33t33.5 14t33.5 -14t14 -33
q0 -30 -26 -43l-10 -4v-11v-2q0 -68 48.5 -116.5t116.5 -48.5t116 48.5t48 116.5v3v8l-5 4q-12 13 -12 30t12.5 29t29.5 12t29 -12t12 -30q0 -16 -11.5 -28t-27.5 -13z" />
    <glyph glyph-name="linebag-block" unicode="&#xe61c;" 
d="M867 31v-41q-1 -3 -3.5 -12t-5.5 -13q-11 -17 -22 -21h-639q-21 3 -33 21q-3 4 -4 11.5t-3 11.5v47q3 16 3 57q1 21 2 45t3.5 53t3.5 46q2 36 8 122q1 16 4.5 63.5t5.5 73.5q5 50 5 54q5 24 22 38t41 14q7 0 19.5 -1t17.5 -1q10 0 11 10q10 95 70 179q30 41 77 61
q9 4 25.5 6t19.5 3h4q12 -3 24 0h6q49 -4 82.5 -32t61.5 -76q34 -58 46 -136q2 -13 15 -13q12 1 37 0q37 -1 52 -37q6 -15 8 -44q3 -43 8 -98q1 -17 3.5 -49.5t3.5 -47.5q2 -23 6 -67q5 -72 7 -97q3 -31 4 -69q2 -50 4 -61v0zM499 858q12 -5 24 0h-24zM654 597q11 -1 8 10
q-1 7 -5 23l-6 24q-24 82 -68 121q-42 37 -86 29q-58 -10 -94 -70q-31 -50 -42 -125q-1 -6 1 -8t8 -2q105 0 216 -2h68zM407.5 493.5q-0.5 21.5 -16 37.5t-37.5 16t-37.5 -16t-15.5 -38t16 -37.5t37.5 -15.5t37.5 16t15.5 37.5zM612 493.5q0 -21.5 15.5 -37.5t37.5 -16
t38 15.5t16 37.5t-16 38t-37.5 16t-37.5 -16t-16 -37.5z" />
    <glyph glyph-name="class-thin" unicode="&#xe610;" 
d="M865 668h-707q-12 0 -20.5 8t-8.5 20.5t8.5 21t20.5 8.5h707q12 0 20.5 -8.5t8.5 -21t-8.5 -20.5t-20.5 -8zM621 351h-463q-12 0 -20.5 8.5t-8.5 20.5t8.5 20.5t20.5 8.5h463q12 0 20.5 -8.5t8.5 -20.5t-8.5 -20.5t-20.5 -8.5zM783 34h-625q-12 0 -20.5 8.5t-8.5 20.5
t8.5 20.5t20.5 8.5h625q12 0 20.5 -8.5t8.5 -20.5t-8.5 -20.5t-20.5 -8.5z" />
    <glyph glyph-name="return" unicode="&#xe662;" 
d="M1006 388q0 99 -39 189.5t-105.5 156t-158 104.5t-192 39t-192 -39t-157.5 -104.5t-105 -156t-39 -189.5t39 -189.5t105 -156t157.5 -104.5t192.5 -39q164 0 297 100q6 6 6 14q0 9 -6.5 15.5t-15.5 6.5t-16 -7v0q-119 -86 -265 -86q-91 0 -173.5 35t-142.5 94.5
t-95.5 141.5t-35.5 172t35.5 172t95.5 141t142.5 94t173.5 35t174 -35t143 -94t95.5 -141t35.5 -172q0 -112 -51 -207v0q-1 -5 -1 -7q0 -9 6.5 -15t15.5 -6q15 0 20 14v0q56 107 56 224zM789 103q24 0 24 23.5t-24 23.5h-247q-79 0 -128 28t-59 76v195q0 17 -1.5 27
t-5.5 15.5t-12.5 7t-21.5 1.5h-79q-13 0 -18 -7t-5 -20q0 -21 23 -21h67q6 0 6 -8v-196q0 -58 -75 -100h1q-13 -6 -17.5 -12.5t-4.5 -12.5q0 -10 8.5 -16t14.5 -8q9 0 23 7.5t32 21.5q30 24 47 60q59 -85 217 -85v0h235v0zM310 647q-13 10 -21 17q-17 12 -27 12
q-13 0 -17.5 -8.5t-6.5 -16.5q0 -5 4.5 -11.5t12.5 -11.5q7 -4 16 -10.5t22 -17.5q12 -9 22 -18.5t19 -17.5q17 -17 27 -17q9 0 17 8t8 18q0 8 -7 17q-7 7 -41 34h1q-17 14 -29 23zM752 408q11 12 11 42v160q0 29 -11 40.5t-40 11.5h-249q-29 0 -39.5 -10.5t-10.5 -41.5
v-380q0 -25 7 -37q9 -16 28 -16q15 0 57 14q21 7 37 13q17 6 31 12q15 7 23.5 12t13 9t5.5 7.5t1 6.5q0 6 -5 14h1q-4 8 -15.5 8.5t-32.5 -10.5q-9 -5 -25 -11t-34 -12q-15 -5 -28 -9q-14 -4 -16 -4q-1 0 -1 8v161h35q51 -45 94 -85q43 -39 77 -70l36 -34q18 -18 36 -35h-1
q8 -8 16.5 -8t16.5 7q9 7 9 17q0 5 -3 11t-8 11q-4 4 -20 18q-15 13 -44 40q-4 4 -9 8.5t-10 9.5q18 11 32 20.5t25 19.5q32 27 32 43q0 3 -3 9.5t-9 10t-15 2t-20 -12.5q-16 -17 -36 -32.5t-40 -27.5q-21 19 -42 37q-21 19 -46 41h149q28 0 40 12v0zM460 605q0 6 1 8.5
t6 2.5h241q9 0 9 -11v-53h-257v53zM460 443v63h257v-52q0 -11 -9 -11h-248z" />
    <glyph glyph-name="text-block" unicode="&#xe613;" 
d="M683 612q-24 0 -40.5 16.5t-16.5 39.5v228l284 -284h-227zM683 555h227v-569q0 -47 -33 -80.5t-81 -33.5h-568q-48 0 -81 33.5t-33 80.5v796q0 47 33 80.5t81 33.5h341v-228q0 -47 33.5 -80t80.5 -33zM256 43h341v57h-341v-57zM256 213h512v57h-512v-57zM256 441v-57h512
v57h-512z" />
    <glyph glyph-name="admin-text" unicode="&#xe65d;" 
d="M856 202h-323q-8 0 -12.5 -5.5t-4.5 -12.5q0 -17 17 -17h323q7 0 12.5 5.5t5.5 11.5q0 18 -18 18zM856 49h-323q-8 0 -12.5 -5.5t-4.5 -12.5q0 -18 17 -18h323q7 0 12.5 5t5.5 13q0 18 -18 18zM948 324h-242q-80 81 -197 108q58 30 94 87t36 125q0 96 -68 165t-164.5 69
t-165 -69.5t-68.5 -166.5q0 -68 35.5 -124.5t93.5 -85.5q-127 -30 -209 -122.5t-82 -209.5q0 -7 5 -12.5t12 -5.5q8 0 13 5t5 13q0 83 48 154t131.5 112t182.5 41q140 0 244 -83h-191q-30 0 -51.5 -21t-21.5 -51v-290q0 -30 21 -51t52 -21h466q29 0 50.5 21t21.5 51v290
q0 72 -51 72zM208 642q0 82 58 140.5t140 58.5q81 0 139.5 -58.5t58.5 -140.5q0 -77 -51 -133.5t-125 -64.5h-22q-10 0 -22 -1q-74 9 -125 65.5t-51 133.5zM962 -38q0 -15 -10.5 -26t-24.5 -11h-466q-15 0 -25.5 10.5t-10.5 26.5v290q0 14 10.5 25.5t25.5 11.5h466
q15 0 25 -11t10 -26v-290z" />
    <glyph glyph-name="Add-to" unicode="&#xe616;" 
d="M511 896q-104 0 -198.5 -40.5t-163 -109t-109 -163t-40.5 -198.5q0 -166 98 -301l39 40q-82 118 -82 261q0 93 36 177.5t97 145.5t145.5 97t177.5 36t177.5 -36t145.5 -97t97.5 -145.5t36.5 -177.5t-36.5 -177.5t-97.5 -145.5t-145.5 -97.5t-177.5 -36.5q-142 0 -258 81
l-35 -43q132 -92 293 -92q104 0 199 40t163.5 108.5t109 163.5t40.5 199t-40.5 198.5t-109 163t-163.5 109t-199 40.5zM493 640v-237h-237v-55h237v-237h55v237h237v55h-237v237h-55z" />
    <glyph glyph-name="brand" unicode="&#xe648;" 
d="M487 831.5q0 -9.5 7 -16.5t17 -7t16.5 7t6.5 16.5t-6.5 16.5t-16.5 7t-17 -7t-7 -16.5zM40 733q0 -10 6.5 -17t16.5 -7t17 7t7 17t-7 16.5t-17 6.5t-16.5 -6.5t-6.5 -16.5zM937 733q0 -10 7 -17t17 -7t16.5 7t6.5 17t-6.5 16.5t-16.5 6.5t-17 -6.5t-7 -16.5zM859 71h-694
l-102 583l253 -206l195 300l201 -300l250 206zM180 89h664l93 522l-228 -188l-197 294l-192 -294l-232 188zM165 0h696v-17h-696v17z" />
    <glyph glyph-name="heart-block" unicode="&#xe60e;" 
d="M1014 516q0 126 -86 215.5t-207 89.5q-59 0 -114 -24.5t-96 -69.5q-41 45 -95.5 69.5t-114.5 24.5q-121 0 -207 -89.5t-86 -215.5q0 -6 1 -15v-4q0 -44 21 -97q1 -2 2 -3q23 -57 75 -124.5t102.5 -118t115 -106t92.5 -77t57 -43.5q5 -3 6 -4q13 -10 30.5 -10t30.5 11
q1 0 5 3q26 19 50.5 38t82 67.5t104 93.5t98.5 105.5t83 112.5q4 7 10 19q3 5 3 6l1 1q0 1 1 2q10 20 17 38q18 47 18 86v6v13v0zM1014 516z" />
    <glyph glyph-name="delete-block" unicode="&#xe668;" 
d="M511 864q-97 0 -185.5 -38t-152.5 -102t-102 -152.5t-38 -185.5t38 -186t102 -153t152.5 -101.5t185.5 -37.5t185.5 37.5t152.5 101.5t102 153t38 186t-38 185.5t-102 152.5t-152.5 102t-185.5 38zM725 225q11 -11 11 -26.5t-11 -26.5t-26.5 -11t-26.5 11l-161 160
l-161 -160q-11 -11 -26.5 -11t-26.5 11t-11 26.5t11 26.5l161 161l-161 160q-11 11 -11 27t11 27t26.5 11t26.5 -11l161 -161l161 161q11 11 26.5 11t26.5 -11t11 -27t-11 -27l-161 -160z" />
    <glyph glyph-name="star-line" unicode="&#xe62f;" 
d="M779 1q-2 0 -4 1l-264 73l-263 -73q-7 -2 -12.5 2t-5.5 11l-3 246l-160 200q-8 12 3 20.5t20 -2.5l162 -204q3 -4 3 -9l3 -232l249 70q4 1 8 0l250 -70l3 232q0 5 3 9l149 188l-246 74q-4 1 -6 4l-157 188l-156 -188q-9 -11 -20 -2t-2 20l167 202q5 5 11.5 5t10.5 -5
l165 -198l261 -79q7 -2 9.5 -9.5t-2.5 -13.5l-159 -200l-3 -246q0 -7 -6 -11q-3 -3 -8 -3v0z" />
    <glyph glyph-name="stopwatch-line" unicode="&#xe649;" 
d="M512 -52q-102 0 -189 50.5t-137.5 137t-50.5 189t50.5 189.5t137.5 137.5t189 50.5t189 -50.5t137.5 -137.5t50.5 -189.5t-50.5 -189t-137.5 -137t-189 -50.5zM512 668q-93 0 -172 -46t-125 -125t-46 -172t46 -172.5t125 -125.5t172 -46t172 46t125 125.5t46 172.5
t-46 172t-125 125t-172 46zM495 617h34v-292h-34v292zM495 797h34v-90h-34v90zM444 837h135v-34h-135v34zM713 550l24 -24l-213 -213l-24 23zM860 697l24 -24l-78 -78l-24 23z" />
    <glyph glyph-name="linebag" unicode="&#xe71b;" 
d="M821 587q-3 35 -28.5 59.5t-58.5 24.5h-74q-1 66 -48 112.5t-112.5 46.5t-112.5 -46.5t-48 -112.5h-74q-33 0 -58.5 -24.5t-28.5 -59.5l-51 -544q-3 -34 20 -59q26 -29 68 -29h569q43 0 69 29q23 25 19 59zM499.5 792q50.5 0 86.5 -35t37 -86h-247q1 51 37 86t86.5 35z
M825 9q-15 -17 -41 -17h-569q-26 0 -41 17q-12 13 -10 30l51 544q2 21 16.5 36t33.5 15h74v-75q-16 -6 -25.5 -19.5t-9.5 -30.5q0 -22 15.5 -38t38 -16t38 16t15.5 38q0 17 -10 30.5t-25 19.5v75h247v-75q-15 -6 -24.5 -19.5t-9.5 -30.5q0 -22 15.5 -38t37.5 -16t37.5 16
t15.5 38q0 17 -9.5 30.5t-25.5 19.5v75h74q19 0 33.5 -15t16.5 -36l51 -544q2 -17 -10 -30z" />
    <glyph glyph-name="class-line" unicode="&#xe720;" 
d="M363 787h-108q-53 0 -90 -37t-37 -89v-109q0 -52 37 -89.5t90 -37.5h108q53 0 90 37.5t37 89.5v109q0 52 -37 89t-90 37zM454 552q0 -38 -26.5 -64t-64.5 -26h-108q-38 0 -64.5 26t-26.5 64v109q0 37 26.5 63.5t64.5 26.5h108q38 0 64.5 -26.5t26.5 -63.5v-109zM796 787
h-109q-52 0 -89.5 -37t-37.5 -89v-109q0 -52 37.5 -89.5t89.5 -37.5h109q52 0 89 37.5t37 89.5v109q0 52 -37 89t-89 37zM886 552q0 -38 -26.5 -64t-63.5 -26h-109q-38 0 -64.5 26t-26.5 64v109q0 37 26.5 63.5t64.5 26.5h109q37 0 63.5 -26.5t26.5 -63.5v-109zM363 355
h-108q-53 0 -90 -37t-37 -90v-108q0 -53 37 -90t90 -37h108q53 0 90 37t37 90v108q0 53 -37 90t-90 37zM454 120q0 -38 -26.5 -64.5t-64.5 -26.5h-108q-38 0 -64.5 26.5t-26.5 64.5v108q0 38 26.5 64.5t64.5 26.5h108q38 0 64.5 -26.5t26.5 -64.5v-108zM796 355h-109
q-52 0 -89.5 -37t-37.5 -90v-108q0 -53 37 -90t90 -37h73q7 0 12.5 5.5t5.5 13t-5.5 12.5t-12.5 5h-73q-38 0 -64.5 26.5t-26.5 64.5v108q0 38 26.5 64.5t64.5 26.5h109q37 0 63.5 -26.5t26.5 -64.5v-109q0 -7 5 -12.5t12.5 -5.5t13 5.5t5.5 12.5v109q0 53 -37 90t-89 37z
" />
    <glyph glyph-name="message-line" unicode="&#xe602;" 
d="M851 788h-678q-32 0 -54 -22t-22 -53v-489q0 -31 22 -53.5t54 -22.5h95l85 -168l169 168h329q32 0 54 22.5t22 53.5v489q0 31 -22 53t-54 22zM886 224q0 -14 -10 -24.5t-25 -10.5h-346l-141 -140l-71 140h-120q-15 0 -25 10.5t-10 24.5v489q0 14 10 24.5t25 10.5h678
q15 0 25 -10.5t10 -24.5v-489zM280 555h532v-41h-532v41zM331 381h429v-41h-429v41z" />
    <glyph glyph-name="weibiaoti2010104" unicode="&#xe63c;" 
d="M877 550q-10 0 -18 -8t-8 -17v0v-519q0 -4 -4 -8t-9 -4h-704q-4 0 -8 4t-4 8v704q0 5 4 9t8 4h519q9 0 17 8t8 17.5t-8 17.5t-17 8h-519q-29 0 -49.5 -17.5t-20.5 -46.5v-704q0 -28 21 -49t49 -21h704q29 0 50 21t21 49v519v0q-13 25 -32 25zM954 826q-20 19 -39 0
l-621 -621q-19 -19 0 -39q7 -6 19.5 -6t19.5 6l621 621q4 5 4 17t-4 22z" />
    <glyph glyph-name="gift" unicode="&#xe7d4;" 
d="M576 368h383v-32h-783q-7 0 -11.5 4.5t-4.5 11.5v199q0 31 26.5 52t62.5 21h622q37 0 63 -21t26 -52v-199h-32v199q0 16 -16.5 28.5t-40.5 12.5h-622q-24 0 -40.5 -12.5t-16.5 -28.5v-199l-16 16h368v224h32v-224zM880 336v-298q0 -29 -14.5 -49.5t-33.5 -20.5h-544
q-19 0 -33.5 20.5t-14.5 49.5v298h-32v-298q0 -42 23 -72t57 -30h544q34 0 57 30t23 72v298h-32zM544 336v-368h32v368h-32zM640 640q0 33 -23.5 56.5t-56.5 23.5t-56.5 -23.5t-23.5 -56.5q0 -7 4.5 -11.5t11.5 -4.5t11.5 4.5t4.5 11.5q0 20 14 34t34 14t34 -14t14 -34
q0 -7 4.5 -11.5t11.5 -4.5t11.5 4.5t4.5 11.5zM664 647q29 11 88 0q53 -11 81 -4t49 40q20 34 11 62.5t-44 51.5q-26 16 -60.5 25.5t-64.5 9.5q-55 0 -77.5 -28.5t-22.5 -95.5q0 -6 4.5 -11t11.5 -5t11.5 5t4.5 11q0 55 14 73.5t54 18.5q25 0 55.5 -8.5t52.5 -22.5
q48 -30 23 -69q-14 -22 -33 -26.5t-64 4.5q-36 7 -59.5 7t-46.5 -8q-6 -3 -8.5 -9t-0.5 -12t8 -9t13 0zM467 677q-22 8 -45.5 8t-59.5 -7q-45 -9 -64 -4.5t-33 26.5q-25 39 23 69q22 14 52.5 22.5t55.5 8.5q40 0 54 -18.5t14 -73.5q0 -6 4.5 -11t11.5 -5t11.5 5t4.5 11
q0 67 -22.5 95.5t-77.5 28.5q-30 0 -64.5 -9.5t-60.5 -25.5q-35 -23 -44 -51.5t11 -62.5q21 -33 49 -40t81 4q59 11 88 0q7 -3 13 0t8 9t-0.5 12t-9.5 9zM212 704q-4 1 -11 1q-32 5 -65 -1q-24 -5 -44 -17q-16 -10 -24 -21q-11 -12 1.5 -22.5t22.5 2.5q6 6 17 13
q15 10 33 13q28 5 55 2q5 -1 7 -2q7 -1 12.5 2.5t7 10t-2 12t-9.5 7.5z" />
    <glyph glyph-name="admin-set" unicode="&#xe612;" 
d="M522.5 809q20.5 0 40 -2.5t46 -13.5t46 -29t33.5 -51.5t14 -78.5v-119q3 -46 -22 -85q-12 -19 -41 -50q-13 -14 -19.5 -21.5t-12 -18t-5.5 -19.5l42 -1q1 6 26 32q32 34 46 56q14 23 21 50.5t7.5 40.5t-0.5 17v118q0 57 -19 100.5t-51.5 67.5t-70.5 36t-80 12
q-43 0 -81 -12t-70.5 -36t-52 -67.5t-19.5 -100.5v-116q-4 -59 28 -110q15 -22 47 -56q24 -25 26 -31q-4 -16 -19.5 -33.5t-46 -36.5t-51.5 -31t-60 -31q-90 -47 -114 -69q-19 -17 -32.5 -37.5t-19 -36t-9 -30t-2 -21.5t0.5 -9l2 -19h519v41h-478q7 46 48 83q19 18 105 62
q36 18 55 28.5t49.5 29t46.5 33.5t30.5 34.5t17.5 39.5v3q0 13 -9 25.5t-28 33.5q-30 31 -42 50q-24 37 -22 86v118q0 45 14 78.5t33.5 51.5t46.5 29t46.5 13.5t40 2.5zM807 -79h-80q-10 0 -10 10v25q-19 6 -37 16l-18 -18q-7 -7 -14 0l-57 56q-3 3 -3 7.5t3 7.5l19 18
q-10 18 -16 37h-26q-10 0 -10 10v80q0 10 10 10h27q6 19 15 36l-19 19q-3 3 -3 7.5t3 7.5l57 56q7 7 14 0l19 -19q18 9 36 15v27q0 10 10 10h80q10 0 10 -10v-27q19 -6 37 -15l19 19q7 7 14 0l57 -56q2 -3 2 -7.5t-2 -7.5l-19 -19q9 -17 15 -36h26q10 0 10 -10v-80
q0 -10 -10 -10h-26q-5 -19 -15 -37l19 -18q2 -3 2 -7.5t-2 -7.5l-57 -56q-3 -3 -7 -3t-7 3l-18 18q-18 -10 -38 -16v-25q0 -10 -10 -10v0v0zM742 -33h51v20q0 7 7 9q21 5 39 16q6 4 11 -1l14 -14l37 36l-15 15q-4 4 -1 10q11 19 16 40q2 6 9 6h20v52h-21q-7 0 -8 6
q-5 21 -16 39q-4 6 1 11l15 15l-37 36l-15 -15q-5 -5 -11 -1q-18 11 -38 16q-7 1 -7 8v22h-51v-22q0 -7 -7 -8q-20 -5 -39 -16q-5 -4 -10 1l-15 15l-37 -36l15 -15q5 -5 1 -11q-11 -18 -16 -39q-2 -6 -8 -6h-21v-52h20q7 0 9 -6q5 -22 16 -40q3 -6 -1 -10l-15 -15l37 -36
l14 14q5 5 11 1q18 -11 39 -16q7 -2 7 -9v-20v0v0zM767 46q-34 0 -58.5 24.5t-24.5 59.5t24.5 59.5t59 24.5t59 -24.5t24.5 -59.5t-24.5 -59.5t-59.5 -24.5v0zM767 182q-21 0 -36 -15.5t-15 -36.5t15 -36.5t36.5 -15.5t36.5 15.5t15 36.5t-15 36.5t-37 15.5v0z" />
    <glyph glyph-name="card-line" unicode="&#xe63f;" 
d="M917 63h-810q-26 0 -44.5 18.5t-18.5 44.5v516q0 26 18.5 44.5t44.5 18.5h810q26 0 44.5 -18.5t18.5 -44.5v-516q0 -26 -18.5 -44.5t-44.5 -18.5v0zM107 673q-12 0 -21 -9t-9 -22v-516q0 -13 9 -22t21 -9h810q12 0 21.5 9t9.5 22v516q0 13 -9 22t-22 9h-810zM196 516h316
v-48h-316v48zM196 298h316v-49h-316v49zM639 443q0 40 28 68t67 28q40 0 68 -28t28 -68t-28 -68t-68 -28q-39 0 -67 28t-28 68v0zM604 246q0 33 38 56t92.5 23t92.5 -23t38 -56h-261z" />
    <glyph glyph-name="levelup" unicode="&#xe6cb;" 
d="M930 431l-367 365q-34 34 -51 34v2q-11 0 -21.5 -7.5t-29.5 -26.5l-367 -367q-30 -22 -30 -62q0 -31 18.5 -56t45.5 -25h169q6 -3 6 -13v-196v-17q0 -53 37.5 -90.5t90.5 -37.5h162q53 0 90.5 37.5t37.5 90.5v17v196q0 7 6 13h169q29 0 46.5 25t17.5 56q0 36 -30 62z
M896 324q-4 -4 -19 -4h-162q-14 -5 -20.5 -16t-7.5 -20v-9v-211q0 -40 -28 -68t-68 -28h-160q-40 0 -68 28t-28 68v211v4t-1 8t-3.5 11.5t-8.5 11.5t-15 10h-179q-1 0 -3.5 1t-8 5t-9.5 9t-7.5 14t-3.5 20q0 16 11 30l377 378q19 21 30 21v-2q9 0 30 -22l51 -51l322 -324
q11 -14 11 -30t-8.5 -28t-23.5 -17z" />
    <glyph glyph-name="reduce-to" unicode="&#xe651;" 
d="M939 -23h-838v839h838v-839zM145 21h750v751h-750v-751zM757 376h-476q-9 0 -15 6t-6 14.5t6 14.5t15 6h476q9 0 15 -6t6 -14.5t-6 -14.5t-15 -6z" />
    <glyph glyph-name="rmb" unicode="&#xe6d3;" 
d="M835 265h-294v255h294q12 0 20.5 9t8.5 21t-8.5 20.5t-20.5 8.5h-255l252 267q8 8 8 20q0 13 -9 22q-8 8 -20 8q-13 0 -21 -9l-278 -294l-271 293q-8 10 -21 10q-12 0 -20 -8q-9 -9 -9 -22q0 -11 7 -20l247 -267h-256q-12 0 -20.5 -8.5t-8.5 -20.5t8.5 -21t20.5 -9h294
v-255h-294q-12 0 -20.5 -8.5t-8.5 -20.5t8.5 -21t20.5 -9h294v-304q0 -12 8.5 -21t20.5 -9t20.5 9t8.5 21v304h294q12 0 20.5 9t8.5 21t-8.5 20.5t-20.5 8.5z" />
    <glyph glyph-name="bar-chart" unicode="&#xe620;" 
d="M932 -8h-28v336q0 23 -16.5 39.5t-40.5 16.5h-110q-24 0 -40.5 -16.5t-16.5 -39.5v-336h-56v784q0 23 -16.5 39.5t-40.5 16.5h-110q-24 0 -40.5 -16.5t-16.5 -39.5v-784h-56v560q0 23 -16.5 39.5t-40.5 16.5h-110q-24 0 -40.5 -16.5t-16.5 -39.5v-560h-28q-12 0 -20 -8
t-8 -20q0 -11 8 -19.5t20 -8.5h840q12 0 20 8t8 20q0 11 -8 19.5t-20 8.5z" />
    <glyph glyph-name="help-center" unicode="&#xe607;" 
d="M383 35q3 -29 6 -41q8 -49 35 -70t88 -21t88 21t35 70q2 11 6 40q5 43 12.5 61.5t26.5 30.5q70 43 112.5 119.5t42.5 160.5q0 86 -43 159t-117.5 115.5t-162.5 42.5t-162.5 -42.5t-117.5 -115.5t-43 -159q0 -85 42.5 -161t112.5 -119q19 -12 26.5 -30.5t12.5 -60.5v0z
M158 406q0 94 47 174.5t129 127t178 46.5t178 -46.5t129 -127t47 -174.5q0 -93 -47 -176.5t-123 -129.5q-12 -8 -18 -29t-7 -45.5t-8.5 -52t-21 -50t-46.5 -37t-83 -14.5t-83 14.5t-46.5 37t-21.5 50t-9 52.5t-6.5 45.5t-17.5 28.5q-77 46 -123.5 129.5t-46.5 176.5z
M764 251q39 67 39 147v0q0 138 -100 233q-2 2 -5 2q-8 0 -8 -8q0 -4 2 -6q96 -90 96 -221q0 -75 -38 -140q-43 -72 -118 -109q49 30 49 27q0 -8 8 -8q2 0 5 2q69 56 96 139zM671 93v0v0zM599 77q-7 0 -11.5 4.5t-4.5 11t4.5 11t11.5 4.5h72v-31h-72zM347 77v31h204
q6 0 11 -5t5 -10.5t-5 -10.5t-11 -5h-204zM498 880q0 7 4.5 11.5t11.5 4.5v0q6 0 10.5 -4.5t4.5 -11.5v-63q0 -6 -4.5 -11t-10.5 -5v0q-7 0 -11.5 5t-4.5 11v63zM841 751q4 5 10.5 5t11 -5t4.5 -11.5t-4 -10.5l-45 -45q-4 -5 -10.5 -5t-11.5 5t-5 11.5t5 10.5l45 45v0z
M999 424q6 0 11 -5t5 -11v0q0 -7 -5 -11.5t-11 -4.5h-63q-7 0 -11.5 4.5t-4.5 11.5v0v0q0 6 4.5 11t11.5 5h63zM28 392q-6 0 -10.5 4.5t-4.5 11.5v0v0q0 6 4.5 11t10.5 5h64q6 0 10.5 -5t4.5 -11v0q0 -7 -4.5 -11.5t-10.5 -4.5h-64v0zM164 729q-4 4 -4 10.5t4.5 11.5t11 5
t11.5 -5l44 -45q5 -4 5 -10.5t-4.5 -11t-11 -4.5t-11.5 4l-45 45v0z" />
    <glyph glyph-name="moments" unicode="&#xe618;" 
d="M514 832q-25 0 -51 -3q-59 -7 -116 -30q301 -297 309 -308v317l-27 9q-57 15 -115 15v0zM828 702q-18 18 -38 34q-47 38 -102 61q2 -423 0 -437l224 225q-6 12 -13 25q-30 52 -71 92v0zM927 550q-298 -301 -309 -309h317q5 13 9 27q15 57 15 115q0 25 -3 51
q-7 60 -29 116v0zM485 207l225 -224q13 6 25 13q51 30 92 71q17 17 34 38q37 47 61 102q1 0 -23.5 0h-61.5h-83t-91.5 -0.5t-84.5 -0.5t-64.5 0.5t-28.5 0.5v0zM370 278v-318q13 -4 27 -8q57 -15 115 -15q25 0 51 3q60 6 116 29l-17 16.5t-43.5 43t-59 58.5t-65 64.5l-60 60
t-45.5 46t-19 20.5v0zM338 410l-225 -224q6 -12 14 -25q29 -52 71 -93q17 -17 37 -33q48 -38 103 -61q0 -1 -0.5 109.5t-0.5 207.5t1 119v0zM82 500q-15 -57 -15 -115q0 -25 3 -51q7 -60 29 -115q298 301 309 308h-317q-5 -12 -9 -27v0zM289 770q-51 -29 -92 -70
q-17 -17 -34 -38q-37 -47 -61 -103h437l-225 225q-13 -7 -25 -14v0z" />
    <glyph glyph-name="recommend" unicode="&#xe62b;" 
d="M643 766q2 -5 5 -14q31 -114 -51 -213l-57 -70h313q18 0 30.5 -12.5t12.5 -29.5v-256q0 -9 -7.5 -28t-22.5 -43.5t-34.5 -47t-48 -37.5t-58.5 -15h-554q-18 0 -30.5 12.5t-12.5 30.5v384q0 17 12.5 29.5t30.5 12.5h189l11 10q93 76 139 138l13 17q88 120 120 132z
M647 810q-11 0 -24 -6t-27.5 -19t-26 -24.5t-28 -32t-24 -30.5t-23.5 -31.5t-18 -23.5q-44 -59 -132 -131h-173v0q-36 0 -61 -25t-25 -60v-384q0 -36 25 -61t61 -25v0h554q38 0 73.5 18t60 44t43 56t28 55.5t9.5 40.5v256q0 35 -25 60t-61 25v0h-223q96 116 59 252
q-13 46 -42 46zM683 341h213v-42h-213v42zM683 171h213v-43h-213v43zM256 469h43v-469h-43v469zM167 140h42v-43h-42v43z" />
    <glyph glyph-name="coupons" unicode="&#xe6c4;" 
d="M950 896h-416q-26 0 -55 -26l-458 -458q-21 -21 -21 -50q0 -30 21 -50l416 -416q21 -21 50 -21q30 0 51 21l457 457q26 22 26 56v416q0 29 -20.5 50t-50.5 21zM977 830v-422q0 -3 -2.5 -7.5t-4.5 -7.5l-3 -4l-468 -460q-5 -5 -12 -5q-2 0 -12 10l-421 416q-5 5 -5 12
t5 12l461 467q14 10 18 11h421q8 0 15.5 -7.5t7.5 -14.5zM785 713q-25 0 -43 -17.5t-18 -42.5t18 -43t43 -18t42.5 18t17.5 43t-17.5 42.5t-42.5 17.5zM662 449q-8 8 -17 -1l-61 -61l-33 32l61 62q9 8 1 17l-17 16q-8 8 -16 0l-24 -25l-15 77q-2 9 -15 4l-25 -8
q-12 -5 -11 -13l21 -104l-2 -2l-17 -17l-3 -2l-103 20q-9 2 -14 -10l-8 -25q-4 -13 5 -15l76 -15l-24 -24q-9 -8 -1 -17l17 -16q8 -8 17 1l61 61l33 -33l-62 -61q-8 -9 0 -17l16 -16q8 -9 17 0l62 61l41 -40q8 -9 16 0l18 17q9 9 0 17l-41 41l62 62q9 8 0 17z" />
    <glyph glyph-name="cash" unicode="&#xe61d;" 
d="M28 687q10 29 11 30q25 47 80 52q2 1 8 1h769q32 0 57.5 -17.5t35.5 -46.5q5 -14 5 -27v-291v-4q0 -6 -4.5 -10t-10.5 -4t-10 4.5t-4 10.5v34v6h-907v-7v-239q-1 -24 15 -42.5t40 -22.5q6 -1 14 -1q68 0 198 -0.5t193 -0.5q6 0 10 -1q11 -3 9 -16q-1 -11 -13 -12h-4h-393
q-32 0 -57 17.5t-36 46.5q-1 1 -6 19v521zM965 605v4v70q0 19 -13 35q-22 27 -61 27h-407h-352q-11 0 -18 -2q-25 -4 -41 -22.5t-15 -43.5v-61v-7h907zM58 455h907v120h-907v-120zM994 191q3 -75 -54 -134.5t-141 -58.5q-79 1 -135 58.5t-55 138.5q1 77 58 133t135 56
q85 -1 140.5 -60.5t51.5 -132.5zM801 28q69 0 117 47.5t48 115.5q0 67 -48 115.5t-116 48.5q-66 0 -114.5 -47.5t-49.5 -113.5q0 -68 48 -117.5t115 -48.5v0zM268 239h-137h-7q-12 1 -13 13q-1 13 11 15q3 1 8 1h276q4 0 8 -1q11 -3 10 -15q-1 -11 -12 -13h-8h-136zM784 162
l5 4q54 54 76 77q8 7 15 6q9 -2 11.5 -9.5t-2.5 -13.5q-1 -2 -3 -4l-89 -89q-13 -13 -26 0q-52 53 -53 53q-7 8 -5 16t10 10t15 -4q1 -2 41 -42z" />
    <glyph glyph-name="shop-line" unicode="&#xe69f;" 
d="M981 -85h-938q-9 0 -15 6t-6 15t6 15.5t15 6.5h938q9 0 15 -6.5t6 -15.5t-6 -15t-15 -6zM896 -85q-9 0 -15.5 6t-6.5 15v470q0 8 6.5 14.5t15.5 6.5t15 -6.5t6 -14.5v-470q0 -9 -6 -15t-15 -6zM128 -85q-9 0 -15 6t-6 15v470q0 8 6 14.5t15 6.5t15.5 -6.5t6.5 -14.5v-470
q0 -9 -6.5 -15t-15.5 -6zM619 76h-1q-18 0 -28 20l-78 173l-78 -173q-10 -20 -28 -20q-19 0 -29 19l-97 194q-4 8 -1.5 16.5t10.5 12.5t16.5 1t12.5 -11l86 -173l80 175q9 20 28 20t28 -20l80 -175l86 173q4 8 12.5 11t16.5 -1t10.5 -12.5t-1.5 -16.5l-97 -194
q-10 -19 -28 -19zM864 469q-37 0 -68 17.5t-49 47.5q-19 -30 -50 -47.5t-67.5 -17.5t-67.5 17.5t-50 47.5q-19 -30 -50 -47.5t-67.5 -17.5t-67.5 17.5t-50 47.5q-18 -30 -49 -47.5t-68 -17.5q-57 0 -97.5 40.5t-40.5 98.5v74q0 6 2 11l86 149q6 11 18 11v0h768v0
q12 0 18 -11l86 -149q2 -5 2 -11v0v-74q0 -58 -40.5 -98.5t-97.5 -40.5zM768 608q0 -40 28 -68t67.5 -28t68 28t28.5 68v69l-77 133h-742l-77 -133v-69q0 -40 28.5 -68t68 -28t67.5 28t28 68q0 9 6.5 15t15 6t15 -6t6.5 -15q0 -40 28 -68t67.5 -28t68 28t28.5 68q0 9 6 15
t15 6t15 -6t6 -15q0 -40 28.5 -68t68 -28t67.5 28t28 68q0 9 6.5 15t15 6t15 -6t6.5 -15z" />
    <glyph glyph-name="user-two" unicode="&#xe770;" 
d="M611 342q53 42 84 103t31 128q0 118 -83.5 203t-200.5 85q-118 0 -201.5 -83.5t-83.5 -201.5q0 -69 31 -132.5t84 -104.5q-123 -50 -197.5 -165t-74.5 -254q0 -7 6 -13t13 -6h848q7 0 13 6t6 13q0 141 -76 256.5t-199 165.5zM35 -54q7 128 85.5 232t199.5 142q13 6 13 16
q0 14 -10 19q-57 31 -92.5 93t-35.5 131q0 101 73 174t174 73t173.5 -73.5t72.5 -176.5q0 -67 -35 -127t-93 -94q-10 -5 -10 -19q0 -10 13 -16q120 -38 198.5 -143t83.5 -235h-810v4zM813 362q40 31 63 78t23 98q0 67 -37 124t-97 84q-8 2 -16 -0.5t-10 -9.5
q-2 -8 0.5 -15.5t9.5 -10.5q50 -21 81 -69t31 -103q0 -51 -26.5 -95t-69.5 -69q-10 -4 -10 -19q0 -9 13 -16q98 -31 158 -112.5t60 -184.5q0 -8 6 -14t13 -6t13 6t6 14q-2 104 -59.5 190t-151.5 130z" />
    <glyph glyph-name="zhifubao1" unicode="&#xe691;" 
d="M1024 192v506q0 81 -58.5 139.5t-139.5 58.5h-628q-81 0 -139.5 -58.5t-58.5 -139.5v-628q0 -81 58.5 -139.5t139.5 -58.5h628q71 0 126.5 46.5t65.5 113.5q-18 9 -175 77.5t-222 101.5q-71 -86 -148.5 -129.5t-178.5 -43.5q-104 0 -168.5 57t-55.5 135q35 188 269 167
q52 -6 96.5 -16.5t69.5 -18.5t84 -29q40 69 57 141h-396v38h198v70h-243v45h243v103q0 2 0.5 5t5.5 8.5t13 5.5h96v-115h256v-45h-256v-77h211q-22 -90 -83 -211zM282 102q-42 0 -74.5 10.5t-50 26t-28.5 34.5t-13.5 35t-0.5 29q12 35 45 62t90 27q70 0 136 -18.5t145 -57.5
q-49 -69 -114 -108.5t-135 -39.5z" />
    <glyph glyph-name="weixin1" unicode="&#xe697;" 
d="M291.5 604q-15.5 0 -35.5 -10q-10 -10 -10 -26q0 -10 10 -30q20 -11 31 -11q15 0 25.5 10.5t10.5 25.5q0 26 -6 31q-10 10 -25.5 10zM604 384q-10 0 -20.5 -10t-10.5 -20.5t10.5 -20.5t20.5 -10q16 0 26 10t10 20.5t-10 20.5q-3 1 -7 3.5t-6 3.5t-5.5 2t-7.5 1zM1024 742
q0 70 -46 108q-55 46 -108 46h-716q-62 0 -108 -46t-46 -108v-716q0 -70 46 -108q46 -46 108 -46h716q70 0 108 46q46 46 46 108v716zM389 215q-31 0 -107 15l-108 -51l31 92q-123 85 -123 205q0 105 87 184q84 77 215 77q115 0 199.5 -61.5t107.5 -153.5h-31
q-104 0 -184 -71q-66 -75 -66 -169q0 -16 10 -67h-31zM840 113l20 -77l-82 46q-61 -15 -92 -15q-110 0 -184 66q-77 62 -77 159q0 89 77 159q83 66 184 66q105 0 179 -66q77 -70 77 -154q0 -58 -24.5 -102t-77.5 -82zM768 384q-10 0 -20.5 -10t-10.5 -20.5t10.5 -20.5
t20.5 -10q15 0 25.5 10t10.5 20.5t-10.5 20.5t-25.5 10zM502 527q15 0 25.5 10.5t10.5 25.5q0 26 -6 31q-20 10 -30 10t-31 -10q-15 -8 -15 -26q0 -15 15 -30q21 -11 31 -11z" />
    <glyph glyph-name="bill-complete" unicode="&#xe637;" 
d="M175 644h541v-62h-541v62zM175 415h221v-61h-221v61zM405 274l-43 -43l209 -236l416 419l-42 43l-373 -371zM793 -28q0 -15 -11.5 -26.5t-27.5 -11.5h-617q-16 0 -27.5 11.5t-11.5 26.5v824q0 16 11.5 27t27.5 11h617q16 0 27.5 -11t11.5 -27v-351h61v351q0 41 -29 70
t-70 29h-618q-41 0 -70 -29t-29 -70v-824q0 -41 29 -70t70 -29h617q42 0 71 29t29 70v122h-62v-122h1z" />
    <glyph glyph-name="diamond-line1" unicode="&#xe625;" 
d="M939 532l-124 214q-6 10 -18 17t-24 7h-523q-12 0 -24 -7t-18 -17l-124 -214q-4 -6 -7 -13q-1 -1 -2 -3q-5 -9 -1 -17l4 -7h2l8 -10l400 -514q4 -4 9 -8l4 -2q5 -2 10.5 -2t11.5 2l4 2q5 4 8 8l401 514q8 10 9 24.5t-6 25.5zM911 522h-206l90 201zM512 730l142 -208h-285
zM343 537l-90 204h230zM540 741h230l-90 -204zM663 492l-151 -481l-151 481h302zM229 723l89 -201h-206zM117 492h213l144 -457zM693 492h213l-356 -457zM693 492z" />
    <glyph glyph-name="onsale" unicode="&#xe629;" 
d="M512 384zM63 383.5q0 -91.5 35.5 -174.5t95.5 -143.5t143.5 -96t175 -35.5t174.5 35.5t143.5 96t96 143.5t35.5 174.5t-35.5 174.5t-96 143.5t-143.5 96t-174.5 35.5t-175 -35.5t-143.5 -96t-95.5 -143.5t-35.5 -174.5zM512.5 -70q-92.5 0 -176.5 35q-82 35 -144.5 98
t-97.5 144q-35 84 -35 176.5t35 176.5q35 81 97.5 144t144.5 98q84 35 176.5 35t176.5 -35q81 -35 144 -98t97 -144q36 -84 36 -176.5t-36 -176.5q-34 -81 -97 -144t-144 -98q-84 -35 -176.5 -35zM512.5 829q-90.5 0 -173.5 -35q-80 -34 -142 -95.5t-95 -141.5
q-35 -83 -35 -173.5t35 -173.5q33 -80 95 -141.5t142 -95.5q83 -35 173.5 -35t173.5 35q80 34 141.5 95.5t95.5 141.5q35 83 35 173.5t-35 173.5q-34 80 -95.5 141.5t-141.5 95.5q-83 35 -173.5 35zM382 277l270 -1q21 1 26 21l52 219q3 12 -4 23q-9 11 -24 11h-107
q-6 0 -9.5 -4t-3.5 -9.5t3.5 -9.5t9.5 -4h107h3l-53 -220q0 -1 -1 -1l-258 1l-54 220h112q6 0 9.5 4t3.5 9.5t-3.5 9.5t-9.5 4h-119l-14 59h-77q-6 0 -10 -3.5t-4 -9t4 -9.5t10 -4h56l69 -283q-16 -5 -26.5 -19t-10.5 -31q0 -24 19 -40q-19 -16 -19 -40q0 -22 16 -38t38 -16
t37.5 16t15.5 38v0q0 14 -8 27h191q-8 -13 -8 -27v0q0 -22 16 -38t38 -16t37.5 16t15.5 38t-15.5 37.5t-37.5 15.5h-282h-1v0q-11 0 -18.5 8t-7.5 19t7.5 18.5t18.5 8.5zM664.5 197q11.5 0 19 -8t7.5 -19t-7.5 -19t-19 -8t-19 8t-7.5 19t7.5 19t19 8zM382 196v0h1v0
q11 0 18.5 -7.5t7.5 -18.5t-7.5 -19t-19 -8t-19 8t-7.5 19t7.5 18.5t18.5 7.5zM459 575q-10 -9 -0.5 -18.5t18.5 0.5l34 32v-135q0 -6 3.5 -9.5t9 -3.5t9.5 3.5t4 9.5v135l34 -32q4 -4 9 -4v0q6 0 9 4q10 9 0 18l-56 55v0h-1l-0.5 0.5l-0.5 0.5l-0.5 0.5l-0.5 0.5h-0.5h-0.5
h-1v1h-1h-1v0h-1v0h-1h-1v0h-1h-1v0h-1l-1 -1v0h-1v0l-0.5 -0.5l-0.5 -0.5l-0.5 -0.5l-0.5 -0.5h-1v0zM524 450z" />
    <glyph glyph-name="user-manage" unicode="&#xe62a;" 
d="M512 384zM63 383.5q0 -91.5 35.5 -174.5t95.5 -143.5t143.5 -96t175 -35.5t174.5 35.5t143.5 96t96 143.5t35.5 174.5t-35.5 174.5t-96 143.5t-143.5 96t-174.5 35.5t-175 -35.5t-143.5 -96t-95.5 -143.5t-35.5 -174.5zM512.5 -70q-92.5 0 -176.5 35q-82 35 -144.5 98
t-97.5 144q-35 84 -35 176.5t35 176.5q35 81 97.5 144t144.5 98q84 35 176.5 35t176.5 -35q81 -35 144 -98t97 -144q36 -84 36 -176.5t-36 -176.5q-34 -81 -97 -144t-144 -98q-84 -35 -176.5 -35zM512.5 829q-90.5 0 -173.5 -35q-80 -34 -142 -95.5t-95 -141.5
q-35 -83 -35 -173.5t35 -173.5q33 -80 95 -141.5t142 -95.5q83 -35 173.5 -35t173.5 35q80 34 141.5 95.5t95.5 141.5q35 83 35 173.5t-35 173.5q-34 80 -95.5 141.5t-141.5 95.5q-83 35 -173.5 35zM698 290h-171q-9 0 -9 -9.5t9 -9.5h171q4 0 7 3t3 6q0 10 -10 10zM698 208
h-171q-9 0 -9 -9t9 -9h171q10 0 10 9t-10 9zM747 354h-128q-43 43 -105 58q31 16 50 46t19 66q0 51 -36 87.5t-87 36.5t-87.5 -37t-36.5 -88q0 -36 19 -66t50 -45q-68 -16 -111.5 -65t-43.5 -111q0 -10 9.5 -10t9.5 10q0 67 56 114.5t136 47.5q74 0 129 -44h-101
q-16 0 -27 -11t-11 -27v-153q0 -17 11 -28t27 -11h247q15 0 26.5 11.5t11.5 27.5v153q0 38 -27 38zM355 523q0 43 30.5 74t74.5 31q43 0 74 -31t31 -74q0 -41 -27 -71t-67 -34h-11h-12q-39 4 -66 34t-27 71zM755 163q0 -8 -5.5 -14t-13.5 -6h-247q-8 0 -13.5 5.5t-5.5 14.5
v153q0 8 5.5 14t13.5 6h247q8 0 13.5 -6t5.5 -14v-153z" />
    <glyph glyph-name="commodity-manage" unicode="&#xe62d;" 
d="M512 384zM63 383.5q0 -91.5 35.5 -174.5t95.5 -143.5t143.5 -96t175 -35.5t174.5 35.5t143.5 96t96 143.5t35.5 174.5t-35.5 174.5t-96 143.5t-143.5 96t-174.5 35.5t-175 -35.5t-143.5 -96t-95.5 -143.5t-35.5 -174.5zM512.5 -70q-92.5 0 -176.5 35q-82 35 -144.5 98
t-97.5 144q-35 84 -35 176.5t35 176.5q35 81 97.5 144t144.5 98q84 35 176.5 35t176.5 -35q81 -35 144 -98t97 -144q36 -84 36 -176.5t-36 -176.5q-34 -81 -97 -144t-144 -98q-84 -35 -176.5 -35zM512.5 829q-90.5 0 -173.5 -35q-80 -34 -142 -95.5t-95 -141.5
q-35 -83 -35 -173.5t35 -173.5q33 -80 95 -141.5t142 -95.5q83 -35 173.5 -35t173.5 35q80 34 141.5 95.5t95.5 141.5q35 83 35 173.5t-35 173.5q-34 80 -95.5 141.5t-141.5 95.5q-83 35 -173.5 35zM516 616q15 0 29 -3.5t31.5 -12t28.5 -30t11 -51.5v-66q1 -26 -12 -48
q-7 -10 -23 -27q-21 -22 -21 -33h23q1 3 15 17q18 19 25.5 31.5t11.5 28t4 22.5v9v66q0 61 -36 90t-87 29t-87 -29t-36 -90v-65q-2 -32 15 -60q8 -13 26 -32q14 -14 15 -17q-3 -12 -20.5 -26.5t-33.5 -23.5t-44 -23q-51 -26 -64 -38q-17 -16 -25.5 -35t-9 -27t0.5 -13l1 -10
h288v23h-265q4 25 26 45q11 10 59 35q25 13 38 20.5t32 20t28.5 25t11.5 25.5v2q0 11 -21 33q-16 17 -23 27q-13 21 -12 48v66q0 30 11 51.5t28.5 30t31.5 12t29 3.5v0zM674 123h-44v0q-6 0 -6 6v0v14q-11 3 -20 9l-11 -10q-3 -4 -7 0l-32 31q-1 2 -1 4t1 4l10 10
q-5 10 -8 20h-14v0q-6 0 -6 6v0v44v0q0 6 6 6v0h14q3 10 9 20l-11 11q-1 1 -1 3.5t1 3.5l32 32q1 1 3.5 1t3.5 -1l11 -11q10 5 20 8v16v0q0 5 6 5v0h44v0q6 0 6 -5v0v-16q10 -3 20 -8l10 11q2 1 4.5 1t3.5 -1l32 -32q1 -1 1 -3.5t-1 -3.5l-11 -11q5 -10 9 -20h14v0q6 0 6 -6
v0v-44v0q0 -6 -6 -6v0h-14q-3 -10 -9 -20l11 -10q1 -2 1 -4t-1 -4l-32 -31q-1 -2 -3.5 -2t-4.5 2l-10 10q-10 -6 -20 -9v-14v0q0 -6 -6 -6v0v0zM638 149h28v11q0 4 4 5q12 3 22 9q1 1 2 1q2 0 4 -2l8 -8l20 21l-8 8q-2 1 -2 3q0 1 1 2q6 11 9 22q1 4 5 4h11v28h-11v0
q-4 0 -5 4q-3 12 -9 22q-1 1 -1 2q0 2 2 4l8 8l-20 20l-9 -8q-1 -2 -3 -2t-3 1q-10 6 -21 9q-4 1 -4 4v12h-28v-12q0 -3 -4 -4q-11 -3 -21 -9q-2 -1 -3 -1q-2 0 -3 2l-9 8l-20 -20l8 -8q2 -2 2 -4q0 -1 -1 -2q-6 -11 -9 -22q-1 -4 -5 -4v0h-11v-28h11q4 0 5 -4q2 -11 9 -22
v-2q0 -2 -1 -4l-8 -7l20 -21l8 8q2 2 4 2q1 0 2 -1q10 -7 22 -9q4 -1 4 -5v-11v0zM652 193q-19 0 -32.5 13.5t-13.5 32.5t13.5 33t32.5 14t32.5 -14t13.5 -33t-13.5 -32.5t-32.5 -13.5zM652 268q-12 0 -20.5 -8.5t-8.5 -20.5t8.5 -20t20.5 -8t20.5 8t8.5 20t-8.5 20.5
t-20.5 8.5z" />
    <glyph glyph-name="shop-manage" unicode="&#xe631;" 
d="M512 384zM63 383.5q0 -91.5 35.5 -174.5t95.5 -143.5t143.5 -96t175 -35.5t174.5 35.5t143.5 96t96 143.5t35.5 174.5t-35.5 174.5t-96 143.5t-143.5 96t-174.5 35.5t-175 -35.5t-143.5 -96t-95.5 -143.5t-35.5 -174.5zM512.5 -70q-92.5 0 -176.5 35q-82 35 -144.5 98
t-97.5 144q-35 84 -35 176.5t35 176.5q35 81 97.5 144t144.5 98q84 35 176.5 35t176.5 -35q81 -35 144 -98t97 -144q36 -84 36 -176.5t-36 -176.5q-34 -81 -97 -144t-144 -98q-84 -35 -176.5 -35zM512.5 829q-90.5 0 -173.5 -35q-80 -34 -142 -95.5t-95 -141.5
q-35 -83 -35 -173.5t35 -173.5q33 -80 95 -141.5t142 -95.5q83 -35 173.5 -35t173.5 35q80 34 141.5 95.5t95.5 141.5q35 83 35 173.5t-35 173.5q-34 80 -95.5 141.5t-141.5 95.5q-83 35 -173.5 35zM773 120h-524v0q-5 0 -8 3.5t-3 8.5v0q0 5 3 8.5t8 3.5h524q5 0 8.5 -3.5
t3.5 -8.5t-3.5 -8.5t-8.5 -3.5zM725.5 120q-4.5 0 -8 3.5t-3.5 8.5v262q0 5 3.5 8.5t8 3.5t8 -3.5t3.5 -8.5v-262q0 -5 -3.5 -8.5t-8 -3.5zM297 120q-5 0 -8.5 3.5t-3.5 8.5v262q0 5 3.5 8.5t8.5 3.5t8.5 -3.5t3.5 -8.5v-262q0 -5 -3.5 -8.5t-8.5 -3.5zM571 209v0
q-11 1 -16 12l-44 96l-43 -96q-6 -11 -16 -12q-11 1 -16 11l-54 109q-6 10 5 15.5t16 -5.5l48 -96l45 97q5 12 15.5 12t15.5 -12l44 -97l49 96q5 11 15.5 5.5t5.5 -15.5l-54 -109q-6 -11 -16 -11zM708 429q-43 0 -66 36q-23 -36 -65.5 -36t-65.5 36q-23 -36 -65.5 -36
t-65.5 36q-22 -36 -65 -36q-32 0 -54.5 23t-22.5 55v41q0 3 1 6l48 84q3 6 10 6v0h429v0q6 0 10 -6l47 -84q2 -3 2 -6v0v-41q0 -32 -22.5 -55t-54.5 -23zM654 507q0 -23 16 -38.5t38 -15.5t37.5 15.5t15.5 38.5v38l-42 75h-415l-43 -75v-38q0 -23 16 -38.5t38 -15.5
t37.5 15.5t15.5 38.5q0 4 3.5 7.5t8.5 3.5t8.5 -3.5t3.5 -7.5q0 -23 16 -38.5t38 -15.5t37.5 15.5t15.5 38.5q0 4 3.5 7.5t8.5 3.5t8.5 -3.5t3.5 -7.5q0 -23 16 -38.5t38 -15.5t37.5 15.5t15.5 38.5q0 4 3.5 7.5t8.5 3.5t8.5 -3.5t3.5 -7.5z" />
    <glyph glyph-name="list-manage" unicode="&#xe632;" 
d="M512 384zM63 383.5q0 -91.5 35.5 -174.5t95.5 -143.5t143.5 -96t175 -35.5t174.5 35.5t143.5 96t96 143.5t35.5 174.5t-35.5 174.5t-96 143.5t-143.5 96t-174.5 35.5t-175 -35.5t-143.5 -96t-95.5 -143.5t-35.5 -174.5zM512.5 -70q-92.5 0 -176.5 35q-82 35 -144.5 98
t-97.5 144q-35 84 -35 176.5t35 176.5q35 81 97.5 144t144.5 98q84 35 176.5 35t176.5 -35q81 -35 144 -98t97 -144q36 -84 36 -176.5t-36 -176.5q-34 -81 -97 -144t-144 -98q-84 -35 -176.5 -35zM512.5 829q-90.5 0 -173.5 -35q-80 -34 -142 -95.5t-95 -141.5
q-35 -83 -35 -173.5t35 -173.5q33 -80 95 -141.5t142 -95.5q83 -35 173.5 -35t173.5 35q80 34 141.5 95.5t95.5 141.5q35 83 35 173.5t-35 173.5q-34 80 -95.5 141.5t-141.5 95.5q-83 35 -173.5 35zM630 126h-241q-54 0 -70 16q-10 10 -12.5 25.5t-1.5 48.5v18v296v18
q-1 23 -0.5 33.5t4 22t10.5 18.5q16 16 70 16h241q54 0 70 -16q10 -10 12 -25t2 -48v-19v-296v-19q0 -22 -0.5 -32.5t-3.5 -22t-10 -18.5q-16 -16 -70 -16zM389 613q-44 0 -53 -9q-7 -7 -7 -56q1 -12 1 -18v-296q0 -7 -1 -19q0 -48 7 -55q9 -9 53 -9h241q43 0 52 9q7 7 7 55
v19v296v19q0 48 -7 55q-9 9 -52 9h-241v0zM397 549h161v-25h-161v25zM397 455h221v-25h-221v25zM397 351h221v-25h-221v25zM397 252h221v-25h-221v25z" />
    <glyph glyph-name="user-study" unicode="&#xe633;" 
d="M512 384zM63 383.5q0 -91.5 35.5 -174.5t95.5 -143.5t143.5 -96t175 -35.5t174.5 35.5t143.5 96t96 143.5t35.5 174.5t-35.5 174.5t-96 143.5t-143.5 96t-174.5 35.5t-175 -35.5t-143.5 -96t-95.5 -143.5t-35.5 -174.5zM512.5 -70q-92.5 0 -176.5 35q-82 35 -144.5 98
t-97.5 144q-35 84 -35 176.5t35 176.5q35 81 97.5 144t144.5 98q84 35 176.5 35t176.5 -35q81 -35 144 -98t97 -144q36 -84 36 -176.5t-36 -176.5q-34 -81 -97 -144t-144 -98q-84 -35 -176.5 -35zM512.5 829q-90.5 0 -173.5 -35q-80 -34 -142 -95.5t-95 -141.5
q-35 -83 -35 -173.5t35 -173.5q33 -80 95 -141.5t142 -95.5q83 -35 173.5 -35t173.5 35q80 34 141.5 95.5t95.5 141.5q35 83 35 173.5t-35 173.5q-34 80 -95.5 141.5t-141.5 95.5q-83 35 -173.5 35zM780 587q-41 12 -83 12q-31 0 -61.5 -6.5t-51.5 -16t-37.5 -19
t-24.5 -15.5l-8 -7h-1h-1q-3 3 -8.5 7t-24 15t-38.5 19.5t-50.5 15.5t-61.5 7q-42 0 -83 -12q-14 -4 -14 -19v-336q0 -8 5.5 -14t13.5 -6h3q34 6 69 6q105 0 176 -45q6 -4 13 -4h0.5h0.5h0.5h0.5q7 0 13 4q71 45 176 45q35 0 69 -6h3q8 0 13.5 6t5.5 14v336q1 15 -14 19z
M502 194q-74 44 -179 44q-36 0 -72 -6v336v0q39 11 78 11q35 0 70 -9q27 -7 54 -20q30 -15 47 -30l3 -3zM775 232q-36 6 -72 6q-105 0 -179 -44l-1 323l3 3q17 15 47 30q27 13 54 20q35 9 70 9q39 0 78 -11v0v-336zM330 599h4v0h-4zM330 599z" />
    <glyph glyph-name="myprofit" unicode="&#xe634;" 
d="M512 384zM63 383.5q0 -91.5 35.5 -174.5t95.5 -143.5t143.5 -96t175 -35.5t174.5 35.5t143.5 96t96 143.5t35.5 174.5t-35.5 174.5t-96 143.5t-143.5 96t-174.5 35.5t-175 -35.5t-143.5 -96t-95.5 -143.5t-35.5 -174.5zM512.5 -70q-92.5 0 -176.5 35q-82 35 -144.5 98
t-97.5 144q-35 84 -35 176.5t35 176.5q35 81 97.5 144t144.5 98q84 35 176.5 35t176.5 -35q81 -35 144 -98t97 -144q36 -84 36 -176.5t-36 -176.5q-34 -81 -97 -144t-144 -98q-84 -35 -176.5 -35zM512.5 829q-90.5 0 -173.5 -35q-80 -34 -142 -95.5t-95 -141.5
q-35 -83 -35 -173.5t35 -173.5q33 -80 95 -141.5t142 -95.5q83 -35 173.5 -35t173.5 35q80 34 141.5 95.5t95.5 141.5q35 83 35 173.5t-35 173.5q-34 80 -95.5 141.5t-141.5 95.5q-83 35 -173.5 35zM679 315h-161v140h161q7 0 12 5t5 11.5t-5 11.5t-12 5h-140l139 147
q11 12 -1 23q-4 5 -11 5t-11 -5l-154 -162l-149 161q-5 6 -12 6q-6 0 -11 -5q-12 -11 -1 -23l136 -147h-141q-6 0 -11 -5t-5 -11.5t5 -11.5t11 -5h162v-140h-162q-6 0 -11 -5t-5 -11.5t5 -11.5t11 -5h162v-168q0 -7 5 -11.5t11.5 -4.5t11.5 4.5t5 11.5v168h161q7 0 12 5
t5 11.5t-5 11.5t-12 5z" />
    <glyph glyph-name="address-manage" unicode="&#xe635;" 
d="M512 384zM63 383.5q0 -91.5 35.5 -174.5t95.5 -143.5t143.5 -96t175 -35.5t174.5 35.5t143.5 96t96 143.5t35.5 174.5t-35.5 174.5t-96 143.5t-143.5 96t-174.5 35.5t-175 -35.5t-143.5 -96t-95.5 -143.5t-35.5 -174.5zM512.5 -70q-92.5 0 -176.5 35q-82 35 -144.5 98
t-97.5 144q-35 84 -35 176.5t35 176.5q35 81 97.5 144t144.5 98q84 35 176.5 35t176.5 -35q81 -35 144 -98t97 -144q36 -84 36 -176.5t-36 -176.5q-34 -81 -97 -144t-144 -98q-84 -35 -176.5 -35zM512.5 829q-90.5 0 -173.5 -35q-80 -34 -142 -95.5t-95 -141.5
q-35 -83 -35 -173.5t35 -173.5q33 -80 95 -141.5t142 -95.5q83 -35 173.5 -35t173.5 35q80 34 141.5 95.5t95.5 141.5q35 83 35 173.5t-35 173.5q-34 80 -95.5 141.5t-141.5 95.5q-83 35 -173.5 35zM721 442v-11q-1 -3 -2 -7.5t-1 -6.5q-8 -41 -30 -76q-63 -138 -176 -240
q-112 102 -176 240q-22 35 -29 76q-1 2 -2 6.5t-2 7.5v11v6v6q0 86 61.5 147.5t148 61.5t147.5 -61.5t61 -147.5q0 -3 0.5 -6t-0.5 -6zM698 454q0 77 -54.5 131t-131 54t-131 -54t-54.5 -131q0 -3 -0.5 -5.5t0.5 -4.5v-11q1 -2 1.5 -6t1.5 -6q6 -36 26 -67q57 -123 156 -213
q100 90 156 213q20 31 27 67q0 2 1 6t2 6v11v4.5v5.5zM512 384q-36 0 -61.5 25.5t-25.5 61.5t25.5 61.5t61.5 25.5t61.5 -25.5t25.5 -61.5t-25.5 -61.5t-61.5 -25.5zM512.5 535q-26.5 0 -45.5 -18.5t-19 -45t19 -45.5t45.5 -19t45 19t18.5 45.5t-18.5 45t-45 18.5z" />
    <glyph glyph-name="bill-close" unicode="&#xe639;" 
d="M203 642h540v-61h-540v61zM203 414h220v-61h-220v61zM820 -28q0 -16 -11.5 -27t-26.5 -11h-617q-16 0 -27.5 11t-11.5 27v823q0 16 11.5 27t27.5 11h617q15 0 26.5 -11t11.5 -27v-351h61v351q0 41 -29 70t-70 29h-617q-41 0 -70 -29t-29 -70v-823q0 -41 29 -70t70 -29
h617q41 0 69.5 29t28.5 70v122h-61v-122h1zM947 497l48 -49l-409 -404l-48 49zM537 454l49 49l411 -418l-49 -48z" />
    <glyph glyph-name="bill-sent" unicode="&#xe63a;" 
d="M203 642h540v-61h-540v61zM203 414h220v-61h-220v61zM820 -28q0 -16 -11.5 -27t-26.5 -11h-617q-16 0 -27.5 11t-11.5 27v823q0 16 11.5 27t27.5 11h617q15 0 26.5 -11t11.5 -27v-351h61v351q0 41 -29 70t-70 29h-617q-41 0 -70 -29t-29 -70v-823q0 -41 29 -70t70 -29
h617q41 0 69.5 29t28.5 70v122h-61v-122h1zM919 295v0l-155 153l-32 -32l126 -125h-325v-57h325l-130 -131l32 -32l191 192z" />
    <glyph glyph-name="bill-wait" unicode="&#xe63b;" 
d="M203 642h540v-61h-540v61zM203 414h220v-61h-220v61zM820 -28q0 -16 -11.5 -27t-26.5 -11h-617q-16 0 -27.5 11t-11.5 27v823q0 16 11.5 27t27.5 11h617q15 0 26.5 -11t11.5 -27v-281h61v281q0 41 -29 70t-70 29h-617q-41 0 -70 -29t-29 -70v-823q0 -41 29 -70t70 -29
h617q41 0 69.5 29t28.5 70v62h-61v-62h1v0zM743 510q-96 0 -163.5 -67.5t-67.5 -163.5t67.5 -164t163.5 -68t164 68t68 164t-68 163.5t-164 67.5zM743.5 87q-79.5 0 -135.5 56t-56 135.5t56 135.5t135.5 56t135.5 -56t56 -135.5t-56 -135.5t-135.5 -56zM747 256v147h-39
v-186h186v39h-147z" />
    <glyph glyph-name="crown" unicode="&#xe621;" 
d="M937 581q-22 22 -53 22q-32 0 -54 -22t-22 -53q0 -17 8 -33q-44 -27 -132 -80q-51 92 -96 173l-29 52q28 22 28 58q0 31 -22 53t-53 22t-53 -22t-22 -53q0 -37 30 -59q-3 -5 -13 -23l-16 -28q-61 -111 -95 -173l-26 16l-12 7q-22 13 -57 34q-2 1 -17.5 11t-24.5 15
q9 16 9 35q0 30 -22 52t-53 22t-53.5 -22t-22.5 -52q0 -27 17.5 -47.5t43.5 -26.5l88 -298q1 -3 3 -8q3 -11 5 -16.5t7.5 -11.5t14.5 -6h177h186h174q15 0 20.5 8t9.5 23q2 7 3 11l87 294q25 6 42 26.5t17 46.5q0 31 -22 53zM512 728q12 0 21 -9t9 -21t-9 -20.5t-21 -8.5
t-21 8.5t-9 20.5t9 21t21 9zM161 512q-8 -9 -21 -9t-21.5 8.5t-8.5 21t8.5 21t21 8.5t21.5 -8.5t9 -20.5t-9 -21zM818 340l-24 -83l-21 -79q-1 -3 0 -19h-518q4 10 2 14l-72 244q-3 11 -9 32l-5 16h1l110 -66q7 -4 11 -7q20 -12 34 -20q14 -9 29 -5q14 4 22 18
q65 117 101 182q8 15 23 41l8 15h6l32 -57q47 -85 98 -177q10 -18 25 -22q4 -1 8 -1q11 0 24 8q27 16 75 45q50 31 71 43q2 -1 5 -2q-13 -43 -36 -120zM883.5 499q-12.5 0 -21 8.5t-8.5 21t8.5 21t21 8.5t21.5 -8.5t9 -21t-9 -21t-21.5 -8.5zM568 45h-283q-10 0 -17 -7
t-7 -17t7 -17t17 -7h283q10 0 17 7t7 17t-7 17t-17 7zM738 45h-57q-10 0 -16.5 -7t-6.5 -17t6.5 -16.5t16.5 -7.5h57q10 0 17 7t7 17t-7 17t-17 7v0z" />
    <glyph glyph-name="sell-line" unicode="&#xe63d;" 
d="M911 -79h-799q-27 0 -46 18.5t-19 45.5v799q0 27 19 46t46 19h799q27 0 45.5 -19t18.5 -46v-799q0 -27 -18.5 -45.5t-45.5 -18.5zM112 817q-14 0 -23.5 -9.5t-9.5 -23.5v-799q0 -13 9.5 -22.5t23.5 -9.5h799q13 0 22.5 9.5t9.5 22.5v799q0 14 -9.5 23.5t-22.5 9.5h-799z
M536 474h34v-99q-1 -43 -12 -76h217v-33h-231q-5 -10 -16 -26q128 -41 236 -101l-19 -30q-113 65 -237 107l-12 -12q-70 -58 -231 -93l-19 29q160 32 227 87q18 18 32 39h-261v33h277q13 34 15 76v99zM251 537h241v71h-193v32h193v54h35v-54h190v-32h-190v-71h226v-22
q-16 -69 -42 -129l-33 9q24 47 40 110h-467v32zM292 410q75 -28 137 -67l-18 -27q-65 43 -136 68zM349 473q72 -24 133 -59l-18 -27q-65 39 -132 61z" />
    <glyph glyph-name="buy-line" unicode="&#xe63e;" 
d="M911 -79h-799q-27 0 -46 18.5t-19 45.5v799q0 27 19 46t46 19h799q27 0 45.5 -19t18.5 -46v-799q0 -27 -18.5 -45.5t-45.5 -18.5zM112 817q-14 0 -23.5 -9.5t-9.5 -23.5v-799q0 -13 9.5 -22.5t23.5 -9.5h799q13 0 22.5 9.5t9.5 22.5v799q0 14 -9.5 23.5t-22.5 9.5h-799z
M532 593h34v-135q-1 -57 -14 -104h243v-35h-255q-11 -23 -16 -33q143 -66 257 -141l-24 -27q-118 79 -251 141q-10 -14 -14 -19q-70 -76 -228 -119l-20 30q158 41 225 115q21 25 33 53h-263v35h277q14 47 16 104v135zM265 662h482v-23q-14 -56 -38 -115l-32 10q22 45 35 95
h-447v33zM287 497q76 -32 136 -74l-18 -27q-66 49 -134 76zM348 588q71 -31 129 -75l-19 -28q-59 48 -126 78z" />
    <glyph glyph-name="jingxuan" unicode="&#xe623;" 
d="M503 186h-1q-2 0 -4 1q-237 32 -334 301q-58 158 -57 355v5q0 13 1 26v1q0 4 2 8q5 9 14 9h756q10 0 15 -8q4 -6 3 -12v-29q1 -197 -56 -355q-97 -269 -335 -302h-4v0zM142 858v-15q-1 -192 54 -344q90 -249 307 -279q216 30 307 279q55 153 54 344v15h-722v0zM578 319v0
q-5 0 -5 6q0 3 3 5q118 49 163 218q1 4 6 4t5 -5v-2q-46 -174 -169 -226h-3v0zM503 -1v0q-7 0 -12 5t-5 12v187q0 7 5 12t12 5t12 -5t5 -12v-187v0q0 -7 -5 -12t-12 -5v0v0zM721 -115h-436v0q-8 0 -13 5t-5 12v75q0 12 12 16q39 14 102.5 24t120.5 10q59 0 122.5 -10
t102.5 -24q11 -4 11 -16v-75q0 -7 -5 -12t-12 -5v0v0zM302 -81h402v45q-93 29 -202 29q-106 0 -200 -29v-45v0zM231 367q-76 0 -144 71q-57 59 -71.5 131.5t21.5 118.5q32 41 89 39q7 0 11.5 -5t4.5 -12v-1q0 -7 -5 -11.5t-12 -4.5h-1q-39 1 -60 -26q-28 -35 -13.5 -96
t61.5 -109q58 -61 119 -61h1q7 0 11.5 -5t4.5 -12t-4.5 -12t-11.5 -5h-1zM776 367h-1q-7 0 -11.5 5t-4.5 12t5 12t12 5v0q61 0 119 61q47 48 61.5 109t-12.5 96q-22 27 -61 26q-7 -1 -12.5 4t-5.5 12v1q0 7 5 12t11 5q58 2 90 -39q36 -46 21 -118.5t-72 -131.5
q-68 -71 -144 -71v0z" />
  </font>
</defs>
</svg>
